/* XPM */
static char *result[] = {
/* columns rows colors chars-per-pixel */
"32 32 167 2 ",
"   c #4F6B2D",
".  c #536F2B",
"X  c #5E7827",
"o  c #53752F",
"O  c #5B762B",
"+  c #56792E",
"@  c #5D7B2D",
"#  c #4D6E32",
"$  c #547432",
"%  c #597731",
"&  c #557931",
"*  c #5C7C33",
"=  c #6B7F26",
"-  c #617D2D",
";  c #617F30",
":  c #BC6500",
">  c #BE6900",
",  c #C66506",
"<  c #C46E04",
"1  c #C76A08",
"2  c #C77102",
"3  c #C87500",
"4  c #CB7A00",
"5  c #D67C01",
"6  c #D67F0F",
"7  c #5F802D",
"8  c #5C8335",
"9  c #63822E",
"0  c #6B852C",
"q  c #798723",
"w  c #7C8F24",
"e  c #718428",
"r  c #738C2A",
"t  c #788928",
"y  c #7C9426",
"u  c #7F9825",
"i  c #648331",
"p  c #698632",
"a  c #658831",
"s  c #6B8933",
"d  c #648638",
"f  c #84911F",
"g  c #97971B",
"h  c #98971D",
"j  c #959C1D",
"k  c #9A9F1F",
"l  c #96A11D",
"z  c #9AA61E",
"x  c #95A91E",
"c  c #9AAA1E",
"v  c #AEA516",
"b  c #ABAA17",
"n  c #AAA61B",
"m  c #ABAA1A",
"M  c #B0A717",
"N  c #B7AB15",
"B  c #BAAC13",
"V  c #B1A918",
"C  c #AFB116",
"Z  c #A7B319",
"A  c #AFB21A",
"S  c #ACBB18",
"D  c #B1B717",
"F  c #BFB413",
"G  c #B5B915",
"H  c #B9BB13",
"J  c #B2B618",
"K  c #BCB51A",
"L  c #B1B918",
"P  c #818F25",
"I  c #8D9726",
"U  c #869922",
"Y  c #8C9825",
"T  c #82972B",
"R  c #8A9E29",
"E  c #959F21",
"W  c #CE8300",
"Q  c #D18305",
"!  c #D88600",
"~  c #DB8B00",
"^  c #DE9200",
"/  c #CF8617",
"(  c #DA8F14",
")  c #D6991B",
"_  c #E18400",
"`  c #E38C00",
"'  c #E98E01",
"]  c #E39500",
"[  c #EB9400",
"{  c #E39C00",
"}  c #EB9B00",
"|  c #F19B00",
" . c #C3AF0F",
".. c #C9AF0D",
"X. c #C7B20F",
"o. c #CCB50D",
"O. c #C2B214",
"+. c #C8B410",
"@. c #C8B913",
"#. c #E2A400",
"$. c #ECA301",
"%. c #E5AB01",
"&. c #ECAB00",
"*. c #F2A300",
"=. c #F2AC00",
"-. c #ECB201",
";. c #EFBC01",
":. c #F2B300",
">. c #F8B300",
",. c #F3BB00",
"<. c #FBBD00",
"1. c #D29720",
"2. c #D49B30",
"3. c #DDA833",
"4. c #DEB938",
"5. c #EABA2E",
"6. c #E0B730",
"7. c #B1C015",
"8. c #BBC215",
"9. c #C5C20E",
"0. c #CCD60E",
"q. c #C4C414",
"w. c #C2CD11",
"e. c #CBD510",
"r. c #E6C304",
"t. c #EEC201",
"y. c #EBCD04",
"u. c #E4CC08",
"i. c #F3C300",
"p. c #FEC400",
"a. c #F5CD01",
"s. c #FCCB00",
"d. c #F2C909",
"f. c #E4D407",
"g. c #EDDA06",
"h. c #F6D301",
"j. c #FCD300",
"k. c #F3D901",
"l. c #FCDC00",
"z. c #F2C818",
"x. c #EEE200",
"c. c #EBE906",
"v. c #E4E608",
"b. c #F7E200",
"n. c #FCE200",
"m. c #FCEB00",
"M. c #F7F301",
"N. c #FCF400",
"B. c #F6F903",
"V. c #FDFD00",
"C. c #F9FA0F",
"Z. c #FBFC11",
"A. c #F3CD2A",
"S. c #F5F130",
"D. c #F9F732",
"F. c #FBFC33",
"G. c #FEFF39",
"H. c #EAD846",
"J. c #ECDC4C",
"K. c #E0C259",
"L. c #EBD55A",
"P. c #F3EE50",
"I. c #F6F557",
"U. c #F7F85A",
"Y. c #FDFF5D",
"T. c #E6D667",
"R. c #FFFF65",
/* pixels */
"+ O O @ @ * - 9 - & & X f m H 9.@.q.Z U 9 O % @ @ - - @ @ i 9 O ",
"9 - 7 7 ; O O o o P F y.l.l.l.l.n.n.m.N.c.q.T o o - - @ 9 - + 9 ",
"@ O @ 7 - X o 0 X.j.s.<.:.=.&.:.:.-.,.i.k.N.V.e.r $ i - O + @ 9 ",
"O @ @ X O o j h.s.=.*.*.*.=.=.=.:.:.:.:.:.;.h.N.V.c   9 p a s i ",
"* i - @ . b n.p.*.*.*.*.*.=.&.:.=.=.:.:.:.,.,.;.n.V.7.$ @ * 9 p ",
"- - O % b m.i.&.=.*.*.| *.*.*.$.i.=.:.:.:.,.,.,.;.k.V.S $ @ ; 9 ",
"@ - . E N.a.=.:.=.=.=.*.*.*.} r.V.i.=.:.:.:.:.,.,.,.k.V.c % s ; ",
"@ . 0 M.l.:.:.:.=.=.=.*.*.| %.V.V.V.,.=.:.:.:.,.,.,.;.n.B.r + 9 ",
"9 o w.V.t.,.,.:.:.=.=.=.*.{ B.V.B.V.N.:.=.:.:.,.,.,.,.t.V.w.$ 9 ",
"+ y V.k.,.;.,.,.:.:.=.=.] x.V.V.V.V.V.M.=.*.:.:.:.,.,.:.h.V.y @ ",
"# G m.i.i.i.,.,.:.:.=.-.y.V.N.N.N.V.N.V.b.i.=.=.:.:.,.,.,.N.8.& ",
"@ f.j.:.i.i.i.,.,.i.l.m.N.m.m.m.m.m.m.m.m.m.n.a.,.:.:.,.,.n.v.- ",
"q l.,.:.,.i.a.h.l.n.n.l.l.n.n.l.k.n.l.n.l.l.n.n.n.l.a.&.&.;.N.y ",
"k j.:.=.:.< i.l.h.h.j.j.j.h.j.h.h.j.j.j.j.j.h.j.s.l.&.] $.&.N.c ",
"v s.*.=.>.~ > j.s.s.s.s.s.s.s.s.s.s.s.s.s.s.s.s.s.i.! $.$.$.n.L ",
"B p.*.*.=.<.4 W l.s.s.s.s.s.s.s.s.s.s.s.s.s.s.s.s.^ } $.$.} l.8.",
"B s.*.*.*.=.>., #.j.s.s.s.s.s.s.s.a.s.p.s.s.s.j.%.` } } $.} l.H ",
"V s.| *.*.*.=.&.: i.s.s.s.s.s.s.s.s.s.s.s.s.s.,._ } } } } $.l.D ",
"h s.*.*.*.*.*.>.5 4 l.s.s.s.s.j.j.s.s.j.j.s.j.-.' [ } } } } l.z ",
"q s.=.| | [ [ | ] 2 n.l.b.n.n.l.l.b.n.n.n.l.m.,.[ [ [ } } &.j.T ",
"@ r.>.' [ [ [ [ [ 3 N.N.V.N.N.N.N.N.N.N.N.M.V.t.[ } [ [ [ >.u.9 ",
"$ N p.[ [ [ [ [ [ 2 C.Z.C.C.C.C.Z.C.C.Z.Z.Z.Z.d.[ | [ [ [ s.K * ",
"& t j.*.[ [ [ [ [ 1 S.D.D.F.F.P.G.G.G.G.F.D.G.z.[ } } [ $.j.T * ",
"@ % +.p.[ [ [ [ [ 1 P.Y.Y.I.H.6.) 1.4.J.U.Y.R.A.} $.} ] p.@.8 a ",
"@ + t a.:.[ [ [ [ , T.L.3.( ~ ] $.#.^ W / 2.K.5.} $.} ,.h.0 % i ",
"- - & k j.*.' [ | 5 6 _ ' [ $.*.$.&.-.-.-.{ ! ] &.} -.l.E * p p ",
"- - 9 & v s.$.' [ | [ | [ [ | } $.$.&.&.-.-.-.&.} ;.m.J 8 9 i ; ",
"- p i - $ V j.:.' [ [ [ [ [ [ [ } } $.&.&.-.&.$.a.N.D d i @ i i ",
"; - i @ @ o h s.p.$.[ ' [ [ [ [ } } $.$.$.&.t.N.N.x * s p i a i ",
"; * - - ; 9 & e o.s.p.=.} [ [ ' ] [ } &.i.n.V.0.r * s i p p i i ",
"p ; ; @ * 9 i * & P O.d.s.p.p.<.<.p.s.l.g.q.R d d s i i i s i i ",
"s ; 9 9 - @ * ; s * * s I n B  .+.O.n I 9 % % i 0 i 9 s 9 9 i ; "
};
