/* XPM */
static char *result[] = {
/* columns rows colors chars-per-pixel */
"32 32 152 2 ",
"   c #4E722C",
".  c #54742E",
"X  c #5A752B",
"o  c #56792E",
"O  c #5D7B2D",
"+  c #506F30",
"@  c #547531",
"#  c #597630",
"$  c #567A32",
"%  c #5C7C32",
"&  c #607729",
"*  c #617D2E",
"=  c #617E30",
"-  c #C46D00",
";  c #C77100",
":  c #CC7000",
">  c #CD7E00",
",  c #DC7D00",
"<  c #D5790A",
"1  c #E17D00",
"2  c #5F802E",
"3  c #5D8035",
"4  c #63822E",
"5  c #68872F",
"6  c #768727",
"7  c #788524",
"8  c #758E26",
"9  c #7B8A25",
"0  c #758A29",
"q  c #798B2A",
"w  c #7D9327",
"e  c #789229",
"r  c #648331",
"t  c #698732",
"y  c #648832",
"u  c #6B8A33",
"i  c #808A1F",
"p  c #8E921D",
"a  c #9E9513",
"s  c #95941B",
"d  c #9F9718",
"f  c #969A1C",
"g  c #A79C14",
"h  c #AA9E16",
"j  c #9BA91B",
"k  c #B6A00D",
"l  c #BDA30C",
"z  c #A3A31F",
"x  c #AEA418",
"c  c #A2A81A",
"v  c #B5A612",
"b  c #B2AC15",
"n  c #BCAA13",
"m  c #AEBD17",
"M  c #A6BB1D",
"N  c #ADBD19",
"B  c #B0B51A",
"V  c #B2BF1A",
"C  c #838E23",
"Z  c #849A2C",
"A  c #9AAB22",
"S  c #D58900",
"D  c #DA8B00",
"F  c #D1840E",
"G  c #DC8C0D",
"H  c #E38402",
"J  c #E28E00",
"K  c #EA8D00",
"L  c #E49300",
"P  c #ED9400",
"I  c #E79F00",
"U  c #EC9B00",
"Y  c #F29B00",
"T  c #C0A80D",
"R  c #D2A901",
"E  c #D9AD01",
"W  c #CFB10C",
"Q  c #C4BC0E",
"!  c #D7B307",
"~  c #DCB101",
"^  c #D5B70B",
"/  c #DEBB08",
"(  c #C1AD11",
")  c #DAA01D",
"_  c #C2B212",
"`  c #CAB711",
"'  c #C2BF11",
"]  c #CBBC11",
"[  c #DDB11E",
"{  c #ECA300",
"}  c #E2AC00",
"|  c #ECAB00",
" . c #F5A400",
".. c #F8A700",
"X. c #F5AC00",
"o. c #F8AF00",
"O. c #E2B400",
"+. c #ECB300",
"@. c #E5BA02",
"#. c #ECBB00",
"$. c #E1BC09",
"%. c #F5B400",
"&. c #F9B300",
"*. c #F4BB00",
"=. c #FCBC00",
"-. c #F1B40B",
";. c #EDB016",
":. c #F2B713",
">. c #D59B21",
",. c #D5992C",
"<. c #D49C3B",
"1. c #DCAB2E",
"2. c #DFA630",
"3. c #B2C216",
"4. c #BDC313",
"5. c #C8C70F",
"6. c #C4CE0F",
"7. c #CAD10F",
"8. c #C3C313",
"9. c #C4CD11",
"0. c #CECA11",
"q. c #C7D312",
"w. c #E9C107",
"e. c #EFC901",
"r. c #E3C80A",
"t. c #F4C400",
"y. c #FCC400",
"u. c #F5CC00",
"i. c #FDCB00",
"p. c #F5D400",
"a. c #FED200",
"s. c #F2DF00",
"d. c #FEDC00",
"f. c #E0E307",
"g. c #FEE200",
"h. c #FEEC00",
"j. c #F7F103",
"k. c #FEF400",
"l. c #FEFD00",
"z. c #FDFD0F",
"x. c #FEFE11",
"c. c #E5C73E",
"v. c #E7C839",
"b. c #FCF82F",
"n. c #FEFE34",
"m. c #FFFF39",
"M. c #E4C556",
"N. c #F6EF54",
"B. c #F6F052",
"V. c #FFFF5D",
"C. c #F2E668",
"Z. c #FFFF60",
/* pixels */
"o X X * O O 4 2 % $ 2 i x n _ Q Q 5.4.j 0 # o * O O * O O r 4 X ",
"4 * O 2 * X X o . f / i.a.d.g.d.d.d.g.k.j.q.w @ O * * * r O o 4 ",
"O X O 2 4 & o O W a.a.i.i.t.%.X.X.%.%.*.i.h.l.N @ = = & o O * 4 ",
"X O O O X X 4 @.a.i.a.y. . . .X.%.&.%.*.*.#.p.l.q.# X * r r t r ",
"% r = & X X / i.i.g.y. . . .....X.X.%.%.*.*.*.t.l.9.% O O O r r ",
"* = X * . ( a.i.g.p.X... . . ...X.*.X.%.%.*.*.*.t.l.M @ * O r r ",
"O * O % C a.i.g.g.%.%.X... . . .| l.u.X.%.&.*.*.*.p.l.e o 4 t = ",
"X X X # ^ i.a.k.y.%.%.%.X.....P s.l.k.%.%.%.*.*.*.#.k.6.@ r O 4 ",
"4 O . 9 i.i.h.h.*.*.%.%.X.&.Y #.l.l.l.g.X.%.%.*.*.*.t.l.8 $ O O ",
"O * . n a.i.k.p.*.=.=.*.%.X.{ j.l.l.l.l.t.X.%.%.*.*.*.h.3.$ 4 4 ",
"X * O w.i.d.g.t.t.*.*.%.&.X.p.l.k.l.k.l.k.t.%.X.%.*.%.p.f.O 5 4 ",
"O o 7 i.i.d.a.%.t.t.*.y.p.h.k.h.h.h.h.h.h.k.g.i.*.%.*.t.j.w r * ",
"O . s a.i.a.y.%.y.u.a.g.g.g.d.g.g.g.g.g.g.d.g.g.d.p.| | h.j $ 4 ",
"* + x a.u.a.%.=.D } g.a.a.d.d.a.a.a.a.a.a.a.a.a.d.*.L I d.V % 4 ",
"* . n a.y.i.X.o.X.- i.i.i.i.i.i.i.i.i.i.i.i.i.i.i.L { I i.8.@ = ",
"O . n i.t.i... .&.D S a.i.i.i.i.i.i.i.i.i.i.i.a.| L { U i.8.@ r ",
"4 $ ( i.t.i... ...&.: %.a.i.i.i.i.i.i.i.i.i.i.i.J U U U y.' # = ",
"y $ n i.t.i...Y  .&.I > a.i.i.i.i.i.i.i.i.i.a.| K U I U y.8.% t ",
"O @ g i.*.i.X. . . .o.: +.a.i.a.i.a.a.a.a.a.a.U P U Y L i.B r t ",
"X   p i.#.i.&.Y Y P Y S } h.g.g.g.g.g.g.g.g.g.X.P P P U i.A 3 y ",
"o . 7 t.#.i.%.P P P Y 1 @.l.k.k.k.k.k.k.k.k.k.%.P P P U i.Z % = ",
"= % * ! #.t.=.P P P Y 1 $.z.z.z.z.z.z.x.x.x.x.+.P P P  .r.t t t ",
"O * @ h *.@.i.Y P P Y 1 1.b.n.m.m.m.m.m.n.n.n.-.U U P =.b 3 u r ",
"O = % C #.@.u.&.P P Y 1 1.V.V.N.v.) >.c.B.V.Z.:.U U Y u.8 3 y r ",
"O O 5 r l #.@.i.U P Y H <.C.2.J J { I D F ,.M.;.U U y.] % = % * ",
"* * O 3 9 @.E t.=.P U K < H K Y  .| X.*.+.{ S { { +.d.0 3 r y t ",
"* = * 5 @ a @.E i.%.P P Y Y P P U { { | +.+.%.{ | g.c $ u * = r ",
"O 4 r * X O l } ~ i.X.P P P P P P U { | | %.| @.h.8.$ u r * 4 r ",
"= = r O O o * l E ~ i.-.P P P P P U U { | | e.k.q.% r t r t r r ",
"= & = O 4 4 O O g E } i.i.%.U P P P P { +.d.k.3.% t r r u y r r ",
"y = * O % 4 r r $ C k R #.i.i.y.=.=.y.i.d.0.Z 3 t t r r r r r = ",
"u r 5 * O % % O t % r q C g h v ` ` _ z q # % 5 5 r 4 t 5 5 t * "
};
