/* XPM */
static char *result[] = {
/* columns rows colors chars-per-pixel */
"32 32 127 2 ",
"   c #526E2D",
".  c #55752C",
"X  c #5A762C",
"o  c #54792E",
"O  c #5D7B2D",
"+  c #557631",
"@  c #587630",
"#  c #557931",
"$  c #5C7C31",
"%  c #617D2D",
"&  c #617E30",
"*  c #5E802E",
"=  c #5D8234",
"-  c #63822E",
";  c #6C842B",
":  c #6D8B29",
">  c #748525",
",  c #748B27",
"<  c #7D8C24",
"1  c #748B2B",
"2  c #7D8E2A",
"3  c #799524",
"4  c #7D962B",
"5  c #648331",
"6  c #698632",
"7  c #668932",
"8  c #6B8A33",
"9  c #8A8E1D",
"0  c #9B9215",
"q  c #94951C",
"w  c #939F1E",
"e  c #9B9D1E",
"r  c #B89F0A",
"t  c #A59913",
"y  c #B09E10",
"u  c #8AA11E",
"i  c #97A41D",
"p  c #BBAA13",
"a  c #B3AB18",
"s  c #AFBB15",
"d  c #828E24",
"f  c #869224",
"g  c #8A9122",
"h  c #8E9B22",
"j  c #849028",
"k  c #8E9F28",
"l  c #939C21",
"z  c #989D20",
"x  c #8EA523",
"c  c #94AA24",
"v  c #DF8203",
"b  c #DF9000",
"n  c #D38E17",
"m  c #E58600",
"M  c #E68C01",
"N  c #EA8D01",
"B  c #E69401",
"V  c #ED9300",
"C  c #E59A00",
"Z  c #EC9C01",
"A  c #F19600",
"S  c #F29A00",
"D  c #E19812",
"F  c #CFA601",
"G  c #C3AA0D",
"H  c #CDAC0E",
"J  c #D1A700",
"K  c #D4AA01",
"L  c #DAAD00",
"P  c #DDB401",
"I  c #D1B70E",
"U  c #DDBB0A",
"Y  c #C4B111",
"T  c #C8B512",
"R  c #C8BD10",
"E  c #E5A100",
"W  c #ECA100",
"Q  c #ECAC01",
"!  c #E0AB08",
"~  c #F5A300",
"^  c #F8A500",
"/  c #F4AC00",
"(  c #F8AC00",
")  c #E3B500",
"_  c #EBB500",
"`  c #E6BA00",
"'  c #EBBC00",
"]  c #F4B300",
"[  c #F9B500",
"{  c #F5BB00",
"}  c #FABB00",
"|  c #D79D20",
" . c #E2B237",
".. c #CBCD0E",
"X. c #D6DB0B",
"o. c #C0C411",
"O. c #CAC510",
"+. c #EEC202",
"@. c #F5C300",
"#. c #FBC500",
"$. c #F6CC00",
"%. c #FDCC00",
"&. c #EFD203",
"*. c #EEDE03",
"=. c #E3D108",
"-. c #F6D401",
";. c #FED200",
":. c #F5DE00",
">. c #FDDB00",
",. c #F7DD0C",
"<. c #F7E400",
"1. c #FFE400",
"2. c #F1EB04",
"3. c #FEEC00",
"4. c #F4E50D",
"5. c #FDF300",
"6. c #FFFD00",
"7. c #FCF90F",
"8. c #FFFF11",
"9. c #F5DA22",
"0. c #F3E029",
"q. c #FFFF36",
"w. c #FFFF39",
"e. c #E2BC4C",
"r. c #F9E740",
"t. c #F6EB4D",
"y. c #F5F057",
/* pixels */
"X X X O X O O * O * * X . < p G p R o., @ - % & O % % O O 5 - X ",
"- O - * - X X O O O - . q #.;.;.>.>.1.2., X - X X & % % - O X % ",
"O X o - - X O . X O # 2 %.;.%.%.@./ ] >.X.. % % $ & 5 % X O * - ",
"O O O O X O O O - O X ` ;.#.;.#.~ ( ] ] 3.x X O % $ X % 5 5 7 5 ",
"% % % % X X O X O . l ;.%.#.;.{ ~ / ] _ #...$ O O X 5 O O $ 5 6 ",
"& % X % % O % X % # I %.%.%.>./ ~ ~ [ ] { *.: @ X 5 5 O $ O & - ",
"O % % % % % X X # ; %.%.%.;.;.( ~ / -.] { >.u   X O O - O - 6 5 ",
"O     % % % % % $ q ;.%.#.>.-.( ~ { 5.[ ] %.s + % X % $ O 5 O % ",
"- O X X X O O - . p ;.%.#.1.%.] ~ -.6.{ / #...$ % % O . O * O O ",
"O % O X O O * - X U ;.%.#.:.@.{ / <.6.$./ } =.* O - - O O - % - ",
"@ O O O O O : * - +.%.%.#.>.@.[ ] 5.6.3.] ] &.: o * % - X O 7 - ",
"X % X % . O X o , %.%.%.$.%.@.@.<.5.3.3.>.] %.3 o O O % * 5 ; O ",
"X % X % % % O . < %.%.#.@.$.{ >.1.1.1.>.1.$.@.x O O % - * 5 - O ",
"& X % O O O O o 9 ;.%.@.@.} E -.;.;.;.;.;.' ] c X - % % % 5 5 - ",
"% O X O O O - X q ;.#.@.+.} C { ;.%.%.%.;.Q ] i # % X X O - % $ ",
"X X $ 5 O X O . z ;.@.@.+.[ Z Q ;.%.%.%.%.Z [ i $ O O O % & $ 5 ",
"- * % % O X - # e %.@.' ' ] ~ E ;.%.%.;.#.C ( w +   . O - % % % ",
"5 - % O O % - # q %.' ' ' ] / C #.%.%.%.{ B [ z . % 7 % % - ; - ",
"o O % O % X % # g #.+.` ` [ ^ B @.;.;.;.{ N ( h $ % - 5 $ 5 8 7 ",
"X . O % X X O 5 j @.' ` P ] S M -.1.>.3.$.N / k $ O O & $ 7 7 7 ",
"O X O 5 O . % * , ' ' ) P ] V M :.6.5.6.-.N / 2 $ - 5 5 5 8 5 & ",
"O & & O 5 5 O O 6 P ' P L _ A M 4.8.8.8.,.N Q 1 & - 6 5 6 6 6 6 ",
"O O & % - O X % O G ` L K _ S M 9.w.w.w.9.A ! - O O 5 5 O 7 8 5 ",
"O % % 6 ; 5 X % o t ' K J ) ~ m t.t.| y.r.A H $ % 5 - 5 * 7 5 5 ",
"X O 6 - - 5 - % + 9 ) K J P / m e.D C n  .^ a $ - O O 5 6 $ X 5 ",
"% & O - - - X % & 6 K L J L ] N m S ] Q b { h $ - - O 5 5 5 7 5 ",
"% & % 5 O X X $ 5 $ p L J K ' A V V W _ Q +.; % : 5 - & 5 % 5 5 ",
"% - 5 * X % % % 5 $ d L K J ` / V V W Q { O.+ 5 8 5 - 8 5 % - 5 ",
"& & & O X O O - 6 8 5 r P F L { V V S W >.c $ 6 7 5 7 ; 5 6 7 5 ",
"& & & % - - O O % $ # > J L F ' } B M #.X.$ 5 % 5 7 5 5 8 7 5 5 ",
"5 & % O O - 5 & & $ 5 5 j J L L %.#.} ,.j 7 8 6 6 6 5 5 6 5 5 & ",
"8 5 6 O & $ $ & 7 5 7 7 5 1 0 0 t G T 2 @ 5 & 5 6 5 - 8 - 5 6 % "
};
