/* XPM */
static char *result[] = {
/* columns rows colors chars-per-pixel */
"32 32 62 1 ",
"  c #4C6D2E",
". c #516E2C",
"X c #4B702C",
"o c #55742B",
"O c #5A762B",
"+ c #557A2F",
"@ c #5D7B2D",
"# c #4E6F31",
"$ c #506F30",
"% c #4C7030",
"& c #527530",
"* c #567A31",
"= c #5C7C31",
"- c #617D2E",
"; c #617E30",
": c #5F802E",
"> c #5E8233",
", c #6F8326",
"< c #63822E",
"1 c #6A852D",
"2 c #758223",
"3 c #7C8722",
"4 c #7C8C25",
"5 c #748A2B",
"6 c #7D8D29",
"7 c #648331",
"8 c #698732",
"9 c #668932",
"0 c #6A8A33",
"q c #878B1E",
"w c #888F1F",
"e c #8E911E",
"r c #93951E",
"t c #9A9A1D",
"y c #B39C0C",
"u c #A39513",
"i c #A79B14",
"p c #BAAA13",
"a c #828C23",
"s c #8A8F20",
"d c #859321",
"f c #899422",
"g c #8E9822",
"h c #919521",
"j c #929921",
"k c #9A9B21",
"l c #9DA020",
"z c #CFA803",
"x c #CCAF0A",
"c c #D4AA00",
"v c #DAAE00",
"b c #CEB20B",
"n c #DDB100",
"m c #E2B500",
"M c #E6B900",
"N c #EBBB00",
"B c #EFC001",
"V c #F4C301",
"C c #F9C500",
"Z c #F7C802",
"A c #FCCB01",
"S c #FFD000",
/* pixels */
"OOO@O@<@@::oO@pbxp@=----O--O<1<O",
"<@-:<OO@@@<O@,ZSSZ87---OO---<O+<",
"@O+<@@@OO@:<@5ZAAZ5O------<-O@@<",
"@@@@O@O@-@@@+2AAAA2O---O-OO-7<07",
";7--oOOOO@7@>aAAAA-O----@O7@@=78",
";-o----O@:77O4SAAAa.----O77@=@7<",
"@-@---OO@O<<&dAAAAf=---OO@O7@<7;",
"Ooo@----<@@+>gAAAAh=-OO-OO-@@7@7",
"<@OO@@@@<--<>jSAASh.<@;-@<@oO:@@",
"@-@OO:::O@<<=fSAASr @7;@O7<:@7:<",
"O@@@O@,:<:O@+rSAAAh*@=@:+:@<O@11",
"O-O;o:O:@OO<&rSAASr*--:@<@@-@79@",
"O;O---@OOO@@otSAAAt*70111@-<:77@",
";O-O@O@@O:<->tAAASt&O-:7----@77<",
"=@O@@@:-:<9:*lSAASt&@-O--@Oo@<-=",
"OO=7<o@@,@@@*tSAASt%O@1@7@@@-;=7",
"<:<<@O@:1-O@&kSAZSt%1@O=OoO@<O;-",
"77OO@@<:@OO@#hSAASt%0OO7OO7<:191",
"O@-@@O@7O@O@%rSAASt>1O;;7<<<=707",
"OO@;OO@17<@7*tAAASt>8-@87@@>*997",
"+O@7@O@97=@;>kAZZAko7-O--<97007-",
":=--<<@@<:<-OhAVVAhO-O<;77778888",
"@=;@1OO---<-ofZVVAe=--;;-O7<@907",
"@--81<O@@o--&sVNNNj=;7---<<7:977",
"@O7717@@@@7;*fNMMNq=9081<@@78;O>",
"--@1<<@-77O;7aMmmN4=90;-1<-<7770",
"-=<7-oo=7;>O*amnnm3+@7--0<<;9-77",
"-1;:O--;777-76vvvn2*99-797-07--7",
";;7@OOO1000<75cccc47787;9781709>",
";;;@<<=@-@@<=5cccz57777-77770777",
"7;-@=777;=;898zvvc0788809877977;",
"078@@;@=877807uyyi77;;;778<0718-"
};
