/* XPM */
static char *result[] = {
/* columns rows colors chars-per-pixel */
"32 32 130 2 ",
"   c #4E6C2A",
".  c #55752C",
"X  c #5A762C",
"o  c #567B2D",
"O  c #5D7B2D",
"+  c #557531",
"@  c #567932",
"#  c #5C7C31",
"$  c #6B7F26",
"%  c #617D2D",
"&  c #617E30",
"*  c #5F802E",
"=  c #5E8132",
"-  c #63822E",
";  c #69832E",
":  c #6D8B2B",
">  c #738725",
",  c #748B27",
"<  c #7E8A24",
"1  c #738529",
"2  c #738A2A",
"3  c #7A9725",
"4  c #7E942A",
"5  c #7F982C",
"6  c #648331",
"7  c #698732",
"8  c #668932",
"9  c #6A8A33",
"0  c #8D9D1C",
"q  c #9E9314",
"w  c #93961D",
"e  c #9B9619",
"r  c #959B1D",
"t  c #98991C",
"y  c #A99D13",
"u  c #8BA51F",
"i  c #94A11D",
"p  c #99A51E",
"a  c #B9A00C",
"s  c #B1A213",
"d  c #BDAB12",
"f  c #B0BC14",
"g  c #838E23",
"h  c #839720",
"j  c #8B9424",
"k  c #8C9A24",
"l  c #87952A",
"z  c #939621",
"x  c #909C24",
"c  c #9B9C20",
"v  c #8AA120",
"b  c #94AC24",
"n  c #DF8202",
"m  c #DE8F00",
"M  c #D38E16",
"N  c #D79C1F",
"B  c #E58700",
"V  c #E68C00",
"C  c #E98D01",
"Z  c #E69401",
"A  c #ED9300",
"S  c #E49C00",
"D  c #EB9D01",
"F  c #F19600",
"G  c #F29A00",
"H  c #E29811",
"J  c #CFA601",
"K  c #CEA802",
"L  c #C4AB0D",
"P  c #C8A80D",
"I  c #D1A700",
"U  c #D4AB01",
"Y  c #DAAC01",
"T  c #C7BE0F",
"R  c #DDB401",
"E  c #D1B50D",
"W  c #DCBB0B",
"Q  c #C6B512",
"!  c #E6A100",
"~  c #EDA300",
"^  c #ECAC01",
"/  c #F5A300",
"(  c #F8A500",
")  c #F4AC00",
"_  c #F9A900",
"`  c #E2B500",
"'  c #ECB300",
"]  c #E6BA00",
"[  c #EBBB00",
"{  c #E1BD0A",
"}  c #F4B300",
"|  c #F9B600",
" . c #F6BB00",
".. c #FABB00",
"X. c #E0B036",
"o. c #CECA0C",
"O. c #D8DC0B",
"+. c #C4C612",
"@. c #CAC612",
"#. c #CAD110",
"$. c #EEC101",
"%. c #F4C401",
"&. c #FBC400",
"*. c #F6CC00",
"=. c #FDCC00",
"-. c #E2D007",
";. c #EED102",
":. c #EEDE03",
">. c #F4D602",
",. c #FED300",
"<. c #F5DE00",
"1. c #FCDB00",
"2. c #F7DE0C",
"3. c #EFE902",
"4. c #F7E400",
"5. c #FFE300",
"6. c #FEEC00",
"7. c #F4E40D",
"8. c #FDF300",
"9. c #FFFD00",
"0. c #FCF90F",
"q. c #FFFF11",
"w. c #F5DB22",
"e. c #F2E029",
"r. c #FFFF36",
"t. c #FFFF39",
"y. c #E1BB4B",
"u. c #F8E741",
"i. c #F6EB4D",
"p. c #F4EF57",
/* pixels */
"o X X O X % O * O O -   > +.@.L L d < + % % % % O % % O O 6 6 X ",
"- % % * - X X X O - O , 3.5.1.1.=.,.=.c X % - o X % % % 6 O o % ",
"O X o - % X O o X o = O.1.^ ) &.=.=.=.,.< . % % # & & % X o % - ",
"X O O O X O O O O . u 5.} } ) / =.,.=.=.{ 6 % o & O X % 6 6 7 6 ",
"& & % % X X X X O + #.&.} } ) / | ,.=.=.=.z # O X X 6 O % # 6 7 ",
"% % X % % % % % O : >. .} } / / ) 1.=.=.=.E X % X 6 8 O O O % 6 ",
"O % X % % % X X + v 1.} } >.) / ) ,.,.=.=.&.; X X X X 6 O - 7 6 ",
"X X X X % % % % @ f *.} } 8. ./ } *.1.=.=.,.w . % X % O % 6 O # ",
"- O o X X O O O X o.&.^ ..9.*./ } *.1.=.&.,.d # % - % X X * * O ",
"O O O O o * - - - -. .) *.9.4.) | %.1.=.,.=.W o o - - o O - O - ",
"+ % O O X O - * : ;.} } 6.9.8.} | %.1.&.=.=.%.8 o * % - X O 7 - ",
"X % X % X O O X 3 >.) 1.8.6.8.5.&.%.>.&.=.=.&.1 O O O % * - ; * ",
"X % X % % % O . 0  .*.5.1.5.5.5.1.| &.*.&.=.=.j * % % % - 6 6 O ",
"& X % O O X O . 0 '  .1.,.,.,.,.>.D  .%.*.&.,.x o % - % O 6 6 - ",
"% O X O O O - . r } ^ ,.=.=.=.,. .Z ..$.%.&.,.r @ % O X O - % # ",
"X X # 6 O X O . p ) S =.=.=.=.,.^ ~ | $.%.%.=.t # O O X % & # 6 ",
"- O - % O O O @ p ) S &.=.=.=.=.S ~ | [ [ %.=.z . X . O - O % % ",
"6 - % X O O - o r ) A ..=.=.=.=.S / | ] ] %.=.z + X 8 O - - 7 - ",
"o O % % O O % # k ) C  .,.,.,.%.Z ) | ` ] [ =.j # % - 6 O 6 9 7 ",
"X . X % X X % = k ) C *.5.5.5.*.V G | R ` [  .l 6 O # - # 8 7 6 ",
"o X O 6 O . % = 5 ^ C 1.9.8.9.<.V A ' R ` [ [ 2 # - 8 6 8 9 6 % ",
"& % % # 6 6 O X , ^ C 2.q.0.q.7.V G ' Y R ] R - 6 6 6 6 7 7 7 7 ",
"O O & % ; O X % 6 Y A w.t.t.t.w.V G ' U Y ] P # % X 6 6 O 8 9 6 ",
"O % % 7 - % O % o P F u.p.N p.i.B / ` I Y ] y # % - - 6 * 8 6 6 ",
"X O 7 - - 7 % % + s _ X.M S H y.V / R I I ` j = - O O 6 7 # o % ",
"% & O 6 - - X % @ x | Z ' ) D n C } Y U Y U ; & - - O 6 6 6 7 7 ",
"% & % 6 X X X O 6 9 $.^ ' ~ A G G [ I U Y s # % : - - & 7 % 6 6 ",
"% - 6 O X - % & 6 = +.} ^ D A A / ] I U U h # 6 7 7 - 9 6 O - 6 ",
"& & 6 O O O O - 9 7 b 1.D D A A  .R K Y a 6 7 & 8 6 6 : 6 8 8 6 ",
"& & & % % - O O & O @ O.&.V A | ] K Y U 2 & 6 % 6 7 6 6 7 8 6 6 ",
"6 & % O # - 6 6 6 # # 5 ;.&.=.&.Y Y K g 7 7 7 7 6 7 6 6 6 7 6 & ",
"7 6 6 % % # O # 6 6 7 # l Q d q q e 2 = & & 6 6 6 7 - 9 - 6 7 & "
};
