/* XPM */
static char *result[] = {
/* columns rows colors chars-per-pixel */
"32 32 144 2 ",
"   c #4E702C",
".  c #53722E",
"X  c #5A762B",
"o  c #56782F",
"O  c #5D7B2D",
"+  c #516E30",
"@  c #547431",
"#  c #567A32",
"$  c #5C7C32",
"%  c #617D2E",
"&  c #617E30",
"*  c #C46D00",
"=  c #CB6F00",
"-  c #C77100",
";  c #CE7F00",
":  c #DD7C00",
">  c #D5790A",
",  c #E17E00",
"<  c #5F802E",
"1  c #5D8235",
"2  c #6A8324",
"3  c #64822E",
"4  c #69842D",
"5  c #748427",
"6  c #758B26",
"7  c #7A8A25",
"8  c #738A29",
"9  c #7B9126",
"0  c #7D912B",
"q  c #648331",
"w  c #698732",
"e  c #648832",
"r  c #6A8A33",
"t  c #8E8F1F",
"y  c #8E9B1B",
"u  c #9A9C1F",
"i  c #B89F0D",
"p  c #A39915",
"a  c #AA9D13",
"s  c #A19818",
"d  c #92A31C",
"f  c #9BA419",
"g  c #BEA40B",
"h  c #ADA115",
"j  c #AAAF17",
"k  c #A5A61F",
"l  c #ADA51A",
"z  c #B1AA17",
"x  c #BDAC13",
"c  c #B4AA19",
"v  c #A8B416",
"b  c #AFBD16",
"n  c #A1B21C",
"m  c #ABB918",
"M  c #BFB014",
"N  c #BBBB13",
"B  c #848E23",
"V  c #8A9425",
"C  c #82952C",
"Z  c #979E23",
"A  c #D68B00",
"S  c #DA8B00",
"D  c #D1840E",
"F  c #DC8C0C",
"G  c #DA9F1D",
"H  c #E38302",
"J  c #E28F00",
"K  c #EA8A00",
"L  c #E49200",
"P  c #ED9400",
"I  c #E79C01",
"U  c #EC9B00",
"Y  c #F29C00",
"T  c #C3AC0E",
"R  c #D2A901",
"E  c #DBAD00",
"W  c #C1B50E",
"Q  c #DBB001",
"!  c #D5B60C",
"~  c #DBB708",
"^  c #C3AC11",
"/  c #C2B212",
"(  c #C8B310",
")  c #C7B810",
"_  c #DEB31E",
"`  c #E7A001",
"'  c #ECA300",
"]  c #E4AD00",
"[  c #ECAA00",
"{  c #F5A400",
"}  c #F8A700",
"|  c #F5AC00",
" . c #F8AF00",
".. c #E3B400",
"X. c #ECB300",
"o. c #E5B901",
"O. c #EDBB00",
"+. c #E2BC09",
"@. c #F5B400",
"#. c #F9B300",
"$. c #F4BB00",
"%. c #FCBC00",
"&. c #F1B30B",
"*. c #EDB016",
"=. c #F1B612",
"-. c #D69C21",
";. c #D5992D",
":. c #D49E3D",
">. c #DCAD2F",
",. c #DFA630",
"<. c #BBC114",
"1. c #BDCA11",
"2. c #C6C40F",
"3. c #DFC308",
"4. c #C1C211",
"5. c #C4CD12",
"6. c #CBC910",
"7. c #EAC304",
"8. c #EEC901",
"9. c #F4C300",
"0. c #FBC400",
"q. c #F4CA00",
"w. c #FDCB00",
"e. c #F4D500",
"r. c #FED200",
"t. c #F7DD02",
"y. c #FEDC00",
"u. c #E1E309",
"i. c #F3E000",
"p. c #FEE200",
"a. c #F4EE02",
"s. c #FEEC00",
"d. c #FEF400",
"f. c #FEFC00",
"g. c #FDFD0F",
"h. c #FEFE11",
"j. c #E6C83C",
"k. c #FCF82F",
"l. c #FEFE33",
"z. c #FFFF39",
"x. c #E4C557",
"c. c #F6F054",
"v. c #FFFF5E",
"b. c #F2E667",
/* pixels */
"X X X O X % O < O # # 2 f <.2.2.W / x a V % # % O % % O O q 3 X ",
"3 O < < 3 X X X . 9 5.a.d.p.y.y.y.p.y.r.w.+.u . X % O % 4 $ X 3 ",
"O X o 3 3 X O . v f.s.q.$.@.@.| | @.9.w.r.w.r.! % $ q % O X O 3 ",
"O O O O X O X 5.f.e.O.$.$.#.@.@.| } { } 9.r.w.r.O.4 . % q e e q ",
"$ q % O X + 1.f.8.$.$.$.@.@.| | | } { { { 9.y.w.r.+.4 O O $ q w ",
"% % X 3 . n f.q.$.$.$.@.@.@.$.| | { { } | } r.p.0.r./ @ % X 3 q ",
"% % X $ 8 f.e.$.$.$.@.@.| 0.f.[ { { { } | @.@.p.p.w.r.V o 3 q q ",
"X X X @ 1.d.O.$.$.@.$.| @.f.f.i.P } } | | @.#.9.d.r.r.! X q O & ",
"% O . 8 d.8.$.$.$.@.@.| p.f.f.f.O.Y | | @.#.$.$.s.s.w.w.B # q O ",
"O % . b d.$.$.@.@.@.{ q.f.f.f.f.d.I  .@.@.$.%.9.e.d.w.r.x # % 3 ",
"X O X u.r.X.$.@.| @.9.d.f.d.f.d.f.e.@.@.$.%.$.9.9.p.y.w.7.3 4 4 ",
"O . 6 d.7.@.@.$.q.p.s.d.s.s.s.s.s.d.s.r.9.$.9.0.$.r.y.w.w.9 1 O ",
"O @ d p.[ [ w.p.p.p.p.p.p.p.p.p.p.p.p.p.p.r.q.9.#.9.y.w.r.u $ 3 ",
"3 + m y.' L O.y.r.r.r.r.r.r.r.y.r.r.r.y.r.p.] S %.@.r.q.r.c $ % ",
"%   <.r.I ' L w.w.w.w.w.w.w.w.w.w.w.w.w.w.w.* '  .| w.0.w.x # & ",
"O . 4.0.I ' L [ r.w.w.w.w.w.w.w.w.w.w.w.r.A S %.} { w.0.w.^ # q ",
"q @ 4.0.U U U L w.w.w.w.w.w.w.w.w.w.w.r.$.- #.} { } w.9.w.^ # % ",
"q $ N 0.U I Y J ' r.w.w.w.w.w.w.w.w.w.r.; I #.} Y } w.9.w.x 1 w ",
"X @ j w.L I U P ' r.r.r.r.w.w.r.r.w.r.X.=  .{ } { | w.9.w.l e w ",
"X   y r.P U P P | p.p.p.p.p.p.p.p.p.s..., Y P Y Y  .w.O.0.Z 1 q ",
"O . 6 r.U P P P [ f.d.d.d.f.d.d.d.d.f.o.: Y P P K #.w.O.9.C & % ",
"$ % $ 3.| P P P @.h.h.h.g.g.g.g.g.g.g.+.: Y P P P 9.9.O.~ w w q ",
"O % @ z %.K U U &.z.l.l.k.l.z.z.l.k.l._ : Y P P Y w.o.9.h 1 r q ",
"O 3 O 0 w.U U I *.v.v.c.x.-.-.j.c.v.v.>., Y P P $.0.o.O.7 1 e q ",
"X O w < ) 0.U U *.x.;.D S I ' J F ,.b.:., Y P U w.o.O.T 1 q X 1 ",
"% % O q 8 t.@.I I S I O.O.| [ { Y K H > K Y P %.9.Q o.6 $ q q w ",
"% $ < q . f p.[ ' $.$.X.[ ' ' U P P Y Y P P #.w.E X.p # w % q q ",
"% 4 q O X # ) s.] [ X.[ [ { U P P P Y P K @.w.E Q g 3 r q % 3 q ",
"& % q O O O o 5.f.7.] ' { U Y P P Y K P %.w.Q E g 3 q w q e e q ",
"& $ & O < 3 O @ m f.y.$.` U K P P U  .w.q.] R a q e w q w e q q ",
"w & & O $ & q q @ 0 6.t.r.0.%.%.0.w.w.O.R i V e q r q q w q q & ",
"w q 4 % % O $ % r $ $ 0 k ^ ( ^ x l s V 5 & # q 4 w 3 e 4 4 w % "
};
