/* XPM */
static char *ac7804310909410eff13e37590b52201eipGWNqawFodN0EF[] = {
/* columns rows colors chars-per-pixel */
"32 32 167 2 ",
"   c #4F6E2C",
".  c #536E2A",
"X  c #4E702D",
"o  c #5B7527",
"O  c #54732D",
"+  c #5A752B",
"@  c #57792F",
"#  c #5D7B2D",
"$  c #4F6F30",
"%  c #4D7030",
"&  c #547531",
"*  c #5A7731",
"=  c #567931",
"-  c #5B7C32",
";  c #617E2E",
":  c #617E30",
">  c #BB6300",
",  c #C06100",
"<  c #CD6E00",
"1  c #D36F00",
"2  c #C47300",
"3  c #CB7800",
"4  c #DA7800",
"5  c #5F802E",
"6  c #5C8235",
"7  c #63822E",
"8  c #6E8429",
"9  c #6F8929",
"0  c #718327",
"q  c #70852B",
"w  c #758C2B",
"e  c #7B922C",
"r  c #648332",
"t  c #698732",
"y  c #658932",
"u  c #6A8933",
"i  c #708E34",
"p  c #87911F",
"a  c #8D941E",
"s  c #95951C",
"d  c #8CA01E",
"f  c #9AA21C",
"g  c #ADA517",
"h  c #BCB114",
"j  c #B3BB1A",
"k  c #BABB13",
"l  c #8C9424",
"z  c #869C23",
"x  c #8C9B22",
"c  c #8FA521",
"v  c #92A222",
"b  c #9CAC20",
"n  c #9DB320",
"m  c #A0A521",
"M  c #D78800",
"N  c #DD8D02",
"B  c #D0840A",
"V  c #DB870E",
"C  c #D59500",
"Z  c #DB9400",
"A  c #DE9800",
"S  c #D18510",
"D  c #D99514",
"F  c #D1911D",
"G  c #E48600",
"H  c #E48B00",
"J  c #E98E01",
"K  c #E79301",
"L  c #EB9400",
"P  c #E49B00",
"I  c #EB9B01",
"U  c #F09D01",
"Y  c #CCB60D",
"T  c #CEB90F",
"R  c #D0B70C",
"E  c #D3BD0E",
"W  c #D9BE0C",
"Q  c #C4B211",
"!  c #CBB510",
"~  c #CCBC10",
"^  c #ECA301",
"/  c #E6AB00",
"(  c #ECAB01",
")  c #EDAB0C",
"_  c #F2A300",
"`  c #F2AB00",
"'  c #F9AF00",
"]  c #E3B700",
"[  c #EDB301",
"{  c #EEBA01",
"}  c #F2B400",
"|  c #FAB500",
" . c #F2BA00",
".. c #FEBD00",
"X. c #D49429",
"o. c #CC8A33",
"O. c #DDAB2C",
"+. c #D9AC35",
"@. c #E2AC38",
"#. c #BAC217",
"$. c #CCCA0E",
"%. c #D5CE0B",
"&. c #CAD30E",
"*. c #CFD80D",
"=. c #D5D50E",
"-. c #D4DB0F",
";. c #C5C412",
":. c #C3C812",
">. c #EDC201",
",. c #E9CF01",
"<. c #F4C400",
"1. c #F8C700",
"2. c #FFC400",
"3. c #FFC400",
"4. c #F5CB00",
"5. c #F5C900",
"6. c #F4CA01",
"7. c #FFCC00",
"8. c #FBCB00",
"9. c #F7D501",
"0. c #F5D402",
"q. c #FFD000",
"w. c #FED200",
"e. c #FFD400",
"r. c #FCD300",
"t. c #F5DC00",
"y. c #FFDB00",
"u. c #F8DF00",
"i. c #FCDA00",
"p. c #E4CC14",
"a. c #F4E301",
"s. c #FFE600",
"d. c #FCE300",
"f. c #F5ED02",
"g. c #FFE900",
"h. c #FFED00",
"j. c #FCED00",
"k. c #F7F301",
"l. c #F5F503",
"z. c #FFF300",
"x. c #FFF100",
"c. c #FFF700",
"v. c #FBF501",
"b. c #F6F800",
"n. c #FBFB00",
"m. c #FBF800",
"M. c #FBFC00",
"N. c #FCFF00",
"B. c yellow",
"V. c #FFFE00",
"C. c #FFFD00",
"Z. c #FCFA00",
"A. c #FBFC1A",
"S. c #E0C12C",
"D. c #EEE139",
"F. c #F1E83D",
"G. c #F9F63D",
"H. c #FDFD3F",
"J. c #DEBD48",
"K. c #E6CE4E",
"L. c #E8CF49",
"P. c #FCFE45",
"I. c #FFFF48",
"U. c #F2ED5F",
"Y. c #F3EE64",
"T. c #FAFC69",
"R. c #FFFF71",
/* pixels */
"@ + + # + ; 5 5 # ; 7 .   & @ O . + & & - 7 ; # # ; 7 # # r 7 + ",
"7 ; ; ; : + + @ # @ - 0 f k $.%.%.$.#.b w O = # # # ; # 7 # @ : ",
"# + # 7 ; o # O O p E 9.y.e.q.q.q.y.s.z.k.*.x & - r r ; + # # 7 ",
"# # # # + # & 8 Y q.2.} ` ( ` ` ` } [  .5.g.B.*.w & o 7 r r u r ",
": r ; # + $ a 9.7.` U _ _ ` ` ` } } } } } { 5.z.b.d - ; # # r t ",
"; : + 7 & f s.1.^ _ _ _ _ _ ` ` ` ` } }  . . .{ d.B.n & # # : r ",
"# ; # * x h.5.` ` ` _ _ _ _ _ / a.` ` } } }  . . .t.B.c & 7 r r ",
"# + O 8 f.i.} } ` ` ` _ _ _ P a.B.u.` } } } }  . . .d.l.9 r # 5 ",
"7 # O &.z.{  .} } ` ` ` ` L ,.B.n.B.9._ } } } }  . .{ v.&.= # # ",
"; O z B.0. . . .} } ` ` I ] B.n.M.Z.B.5._ } } } }  . .4.B.z + 7 ",
"@ & $.h.>.<. . . .} ` ` / n.Z.n.n.n.n.n.<.` ` } }  . .{ h.&.- 7 ",
"+ 8 a.4. .<.<. . . .<.i.j.h.j.j.j.j.j.j.z.d.4. .} }  . .9.l.w @ ",
"& a d.} } <.5.5.9.u.s.s.d.d.d.d.d.d.d.d.d.d.s.d.i.8. .( [ v.v = ",
"& g q.(  .A C d.9.e.9.9.9.e.e.9.9.9.9.9.9.9.9.9.e.9.A ^ ^ s.j & ",
"& Q 2.^ ` } > / q.8.7.8.8.7.8.8.8.7.8.8.8.8.8.8.q.P K ^ I y.:.& ",
"O Y ..U _ } ( > <.7.8.8.8.8.8.8.8.7.8.8.8.8.8.q.[ N ^ ^ I 7.$.= ",
"- T ..U _ _ | Z 2 q.8.8.8.8.8.8.7.8.8.8.8.8.7.8.N I I I I 7.$.& ",
"- Q 2.I _ _ _ | 3 Z e.8.8.8.8.8.7.8.8.8.7.8.7.P J I I I I 7.;.- ",
"% g 7._ _ _ _ _ ^ , <.q.9.9.9.9.9.q.9.q.9.q.9.I L L I I I q.j - ",
"X a 7.^ I L L L _ < >.g.d.d.d.d.d.d.d.s.d.s.d.^ L L L I I y.v 6 ",
"O ; 5._ L L L L U < ,.B.m.v.m.m.m.m.v.m.m.Z.m.^ L L L L ` 9.q # ",
": & ! ..L L L L U < p.A.A.A.A.A.A.A.A.A.A.A.A.( I I L L ..~ r t ",
"# & l 7.I L L L U 1 S.H.H.I.I.P.D.F.I.I.I.P.G.( I I L I 7.x y 7 ",
"# ; @ T 2.K L L U 1 J.R.U.L.O.D N B F +.K.Y.T.) I I K 2.T 6 y 7 ",
"@ # r w 5.} J L I 4 o.@.V G L ^ ( [ ( P M S X.^ ^ P  .9.w - @ ; ",
"; ; ; 6 l q.` J L L G J L I I I ^ ^ ( [ } ( ^ ^ I { d.x - r t t ",
"; : ; 7 O s q.` K L I L L L L I I ^ ^ ( [ [ ( ^ 5.h.f & u ; r r ",
"# 7 r 7 # = s 8...I J L L L L L I I ^ ^ ( ( { s.k.v - i r ; 7 r ",
"r : r # # ; & w W 7...^ L L J J L L I ^ [ u.B.-.e - t t r r y r ",
"- # ; # r 7 ; = - a R 8.2...| ' ' | 2.y.d.=.v + 6 r r r u r r r ",
"y : : # - 7 r r ; & - e m h T W W E h f e r r u u u r r r r r r ",
"u r 7 # # - - : t r t r 6 - - @ - r 6 - - 7 ; r 7 r 7 y 7 7 r ; "
};
