/* XPM */
static char *f6b4cccf67794fdb88f6ff02aa4dbb78M5VH9gpZP87TRIVa[] = {
/* columns rows colors chars-per-pixel */
"32 32 183 2 ",
"   c #010101",
".  c #0B0B0B",
"X  c #100D0B",
"o  c #16100C",
"O  c #1B130D",
"+  c #131212",
"@  c #1B1C18",
"#  c #271C10",
"$  c #22241A",
"%  c #342F18",
"&  c #2C2C2C",
"*  c #353A27",
"=  c #333334",
"-  c #39393A",
";  c #3B3E32",
":  c #503A1B",
">  c #453131",
",  c #6D3C33",
"<  c #683427",
"1  c #384728",
"2  c #2D4438",
"3  c #384732",
"4  c #3C5135",
"5  c #624418",
"6  c #4D4721",
"7  c #524F26",
"8  c #455626",
"9  c #46532A",
"0  c #49562C",
"q  c #4A5B27",
"w  c #565D2B",
"e  c #4A4F3F",
"r  c #57413D",
"t  c #495135",
"y  c #445734",
"u  c #6B4F27",
"i  c #665728",
"p  c #7F4335",
"a  c #7C5E32",
"s  c #774B25",
"d  c #4E622A",
"f  c #4D6427",
"g  c #52652A",
"h  c #546A2B",
"j  c #586F2D",
"k  c #56722B",
"l  c #5A752C",
"z  c #5D7B2D",
"x  c #546334",
"c  c #5E7B30",
"v  c #617E2E",
"b  c #627F30",
"n  c #173E5A",
"m  c #383843",
"M  c #2D4C4E",
"N  c #354849",
"B  c #2C4657",
"V  c #334B54",
"C  c #0F456B",
"Z  c #1B496A",
"A  c #3D4A60",
"S  c #27526F",
"D  c #29567C",
"F  c #34536A",
"G  c #4B4B4A",
"H  c #454443",
"J  c #4D5142",
"K  c #5C5C5E",
"L  c #555853",
"P  c #525845",
"I  c #655C55",
"U  c #6E5149",
"Y  c #5C624E",
"T  c #4E625E",
"R  c #75615C",
"E  c #635E67",
"W  c #4E6260",
"Q  c #5D666E",
"!  c #5F6C78",
"~  c #646464",
"^  c #656668",
"/  c #6B6A68",
"(  c #6C6C70",
")  c #737474",
"_  c #76777B",
"`  c #757A77",
"'  c #8A3F2A",
"]  c #936E1A",
"[  c #AE741D",
"{  c #BA781F",
"}  c #974529",
"|  c #8B4D2B",
" . c #A94928",
".. c #B94D25",
"X. c #AE7528",
"o. c #C54D25",
"O. c #C85126",
"+. c #DC5625",
"@. c #D95825",
"#. c #DD6023",
"$. c #E36125",
"%. c #F16C24",
"&. c #F57523",
"*. c #F67B22",
"=. c #8A6B40",
"-. c #AA7C45",
";. c #5F802F",
":. c #61802E",
">. c #62812F",
",. c #62812F",
"<. c #638130",
"1. c #648231",
"2. c #668531",
"3. c #658331",
"4. c #698632",
"5. c #668832",
"6. c #698932",
"7. c #D08F1B",
"8. c #CA9B1A",
"9. c #CB931B",
"0. c #D09D1B",
"q. c #EF8F1D",
"w. c #F78E1F",
"e. c #ED931E",
"r. c #F6921E",
"t. c #F99B1D",
"y. c #F29D1B",
"u. c #DDA71B",
"i. c #FBA91C",
"p. c #F8A71B",
"a. c #EFB01A",
"s. c #C4853E",
"d. c #EC802F",
"f. c #F68421",
"g. c #F88820",
"h. c #E7902C",
"j. c #F79522",
"k. c #F69435",
"l. c #B58A57",
"z. c #F4AB56",
"x. c #E3B078",
"c. c #175889",
"v. c #155D94",
"b. c #295982",
"n. c #11609D",
"m. c #1869A8",
"M. c #1974BB",
"N. c #2771AA",
"B. c #347BB5",
"V. c #286FA6",
"C. c #536F80",
"Z. c #567489",
"A. c #517A99",
"S. c #7D7E81",
"D. c #237CC1",
"F. c #7D8183",
"G. c #798995",
"H. c #488ABF",
"J. c #7B9AB2",
"K. c #5094C8",
"L. c #6BA5D3",
"P. c #818285",
"I. c #83858B",
"U. c #8C8C8C",
"Y. c #8C8D90",
"T. c #939495",
"R. c #9A9A9C",
"E. c #A5A5A5",
"W. c #A3A8AB",
"Q. c #AEAFB1",
"!. c #B2B2B2",
"~. c #BCBCBD",
"^. c #E4BD93",
"/. c #F0C595",
"(. c #FDD3A2",
"). c #FFDCB1",
"_. c #EDD4B9",
"`. c #9AB6CD",
"'. c #C3C3C5",
"]. c #FFE9CE",
"[. c #ECECEC",
"{. c #FFFFFF",
"}. c #F1F1F1",
/* pixels */
"l >.>.z z v v z z v v v z v v l l v v l l z z z z z z z z l l l ",
"v z z >.z v z z z z z v v 1.v z z z >.z z v z z l l l z v v z v ",
">.v z z z <.b z z v z z z v z z v v z z z v z l l z l >.>.z l z ",
"3.3.3.1.v l z z l v 1.1.z l l l l l v v v z z z z z z l z z z z ",
"3.3.z z z ,.z l z >.v l q t J ; $ * * 8 k v z z z z l k z z b v ",
"1.<.z z z <.v l z z d e ~ ( - . + _ R.~ * 8 z v z z v v v z v v ",
"1.3.>.z >.z z z l 9 K S._ &       . G Q.!.H 1 l l z v v v z z z ",
"z z <.z z z z z 0 ` Y.S.=             . ~ !.G 1 z z v z z l l z ",
"z z ;.l l z >.d ) Q.P.K .                 & L + 8 z z z l l z >.",
",.v >.z z v z P ~.T.S.=                         $ k z l z z z z ",
",.3.z z >.v d U.~.P.) +                         . 8 z l z z z l ",
"v 3.>.v v z t ~.R.P.^ .                       . & % z l z z z l ",
">.<.<.<.>.l L '.I.P.K     . L &               H E.$ k v v z z l ",
"v 1.1.v v h / Q.F.P.K       U.[.T.- .       . !.'.@ f z z z z z ",
"v v >.l q 6 / R.F.P.^ .     - [.{.[.E.G .   & ~.~ . 6 q k z z z ",
"<.z h i -.s.I I.P.P.) +       ) [.{.}.R.+   . .   o X.l.i d l l ",
">.h a ^.].z.| I _ P.P.=         = L = .         X 5 h.)._.=.g <.",
">.i x.).z.r.q.{ a I ( K .                 . O : [ e.r.k.(./.i c ",
"<.u d.j.r.r.r.t.y.7.X.a : # O o o O # % 5 ] 9.p.t.w.r.r.j.k.s h ",
"3.w  .&.w.r.r.r.r.t.i.a.a.u.0.8.8.8.u.a.a.i.t.r.r.r.r.w.*...7 k ",
"v b w } @.&.f.w.r.r.r.r.t.t.i.i.i.i.t.t.r.r.r.r.w.g.*.#.} 7 k l ",
"3.4.4.3 m p ..@.%.&.*.*.f.f.f.f.f.f.f.f.f.*.&.%.$.o.| U 0 z z c ",
">.4.1.2 n.N.G.U < '  ...O.@.+.+.+.+.@.O.o. .} , > Z V.G.h v z z ",
">.5.>.M B.J._ D Z n c.b.I.R m A E r m B D A.! v.F n m.Z.k >.v z ",
"v z l N W x 2 N.Z.Z M.L.W.N v.D.`.Y 2 C m.K.Q c.A.9 N V l 3.z l ",
"4.3.v d l z y F t Z H.F.x 3 c.K.` k z 4 Z B.L 4 N h z q z v v v ",
"1.<.v 3.<.>.g h l V T g z f S C.h 3.3.v q V y <.d h l z <.v b v ",
"<.>.>.3.4.1.3.4.v 9 l 3.z l 3 y z 3.3.3.>.k h 1.b z v l v <.3.v ",
"<.3.3.3.4.3.<.5.1.1.3.1.3.4.v z l b 3.1.1.3.4.4.<.z z z z <.b <.",
"1.1.3.4.3.1.3.3.v 1.1.1.3.4.3.>.l z 3.1.>.z z >.z z >.v z v z c ",
"1.3.3.3.3.1.4.4.4.4.4.3.1.3.3.<.<.1.3.4.3.<.z z <.<.>.z z b b 3.",
"v 3.3.3.5.,.3.3.<.b b b 1.3.3.v z >.1.4.3.3.1.3.v z z z z 1.3.4."
};
