/* XPM */
static char *fe41a5aeee5a4c7fddc8497c12ebdaa1N7XwMkRqZWNdeHV7[] = {
/* columns rows colors chars-per-pixel */
"32 32 196 2 ",
"   c #010101",
".  c #0D0B0C",
"X  c #05040C",
"o  c #190F0F",
"O  c #100A11",
"+  c #1C1815",
"@  c #17180F",
"#  c #1C2D19",
"$  c #232716",
"%  c #383B16",
"&  c #2D2B14",
"*  c #242424",
"=  c #2B2B2B",
"-  c #342A2A",
";  c #2F3027",
":  c #2E2F39",
">  c #312D33",
",  c #293D32",
"<  c #373A35",
"1  c #4F3C15",
"2  c #5C321B",
"3  c #413021",
"4  c #513E3B",
"5  c #6B352B",
"6  c #3B4B1C",
"7  c #3A4624",
"8  c #3F5433",
"9  c #354C2F",
"0  c #584618",
"q  c #42551D",
"w  c #485C1C",
"e  c #4D4B12",
"r  c #6F4B1A",
"t  c #52631E",
"y  c #414925",
"u  c #46462A",
"i  c #504C22",
"p  c #435422",
"a  c #4A5B23",
"s  c #4A5A2A",
"d  c #445928",
"f  c #414438",
"g  c #565E22",
"h  c #694723",
"j  c #6E522D",
"k  c #78502C",
"l  c #4C6B2C",
"z  c #4C6624",
"x  c #546927",
"c  c #5B7526",
"v  c #56742B",
"b  c #5A762B",
"n  c #5D7B2D",
"m  c #557527",
"M  c #5E7D31",
"N  c #617D2E",
"B  c #617C21",
"V  c #617E30",
"C  c #08395B",
"Z  c #192F46",
"A  c #293648",
"S  c #383D42",
"D  c #283E56",
"F  c #423E46",
"G  c #28445D",
"H  c #2D4847",
"J  c #0F486F",
"K  c #134366",
"L  c #0B4879",
"P  c #23547A",
"I  c #3C5370",
"U  c #4B4C4B",
"Y  c #53554B",
"T  c #4F545F",
"R  c #595757",
"E  c #58494C",
"W  c #5C614A",
"Q  c #555E65",
"!  c #586269",
"~  c #436278",
"^  c #616164",
"/  c #6B6B6B",
"(  c #686466",
")  c #6A6A74",
"_  c #7A7B7D",
"`  c #77767B",
"'  c #716E6B",
"]  c #735349",
"[  c #B23A14",
"{  c #893C29",
"}  c #953D27",
"|  c #A93C21",
" . c #C73F15",
".. c #B0401F",
"X. c #99711C",
"o. c #BA7A1B",
"O. c #80562E",
"+. c #BC4221",
"@. c #C9471D",
"#. c #D84C1F",
"$. c #EA581E",
"%. c #E34E1A",
"&. c #E65622",
"*. c #CC7F2E",
"=. c #FE6F25",
"-. c #F26326",
";. c #FF7C23",
":. c #FF7623",
">. c #B07940",
",. c #5F802E",
"<. c #5F812F",
"1. c #5E8532",
"2. c #62812E",
"3. c #64832E",
"4. c #6A872C",
"5. c #698B2E",
"6. c #648231",
"7. c #668532",
"8. c #648331",
"9. c #698632",
"0. c #658932",
"q. c #6A8A33",
"w. c #6E9134",
"e. c #729133",
"r. c #D69819",
"t. c #EF8E0E",
"y. c #F28F1E",
"u. c #F68D13",
"i. c #F4931E",
"p. c #FF9C1E",
"a. c #F59418",
"s. c #D6A51C",
"d. c #FDA31B",
"f. c #FFAD1B",
"g. c #E9B31C",
"h. c #FDB619",
"j. c #D38A3C",
"k. c #F58422",
"l. c #FC8424",
"z. c #FE8A26",
"x. c #F59221",
"c. c #F99420",
"v. c #FF912E",
"b. c #FFC01A",
"n. c #84807F",
"m. c #C08E5D",
"M. c #F2A042",
"N. c #FCB25A",
"B. c #095897",
"V. c #105D93",
"C. c #054D8A",
"Z. c #0260A6",
"A. c #1A75BB",
"S. c #0C70B7",
"D. c #59768F",
"F. c #7D7D81",
"G. c #747984",
"H. c #647A92",
"J. c #117CCC",
"K. c #0B74C4",
"L. c #207CC8",
"P. c #7F8184",
"I. c #5E8BB0",
"U. c #4E83A9",
"Y. c #3183CB",
"T. c #4D99D8",
"R. c #5AA5DF",
"E. c #61A5DB",
"W. c #74B7EC",
"Q. c #848589",
"!. c #87888B",
"~. c #898A8C",
"^. c #838283",
"/. c #8E8D91",
"(. c #88929A",
"). c #97989B",
"_. c #959595",
"`. c #8397A6",
"'. c #9FA0A3",
"]. c #A7A7A7",
"[. c #B8B7BA",
"{. c #F7C692",
"}. c #FFDDAF",
"|. c #FEDFBB",
" X c #8FA8C2",
".X c #C2BEC1",
"XX c #B2D1EF",
"oX c #C9C9CB",
"OX c #C1C2C3",
"+X c #D0CFD3",
"@X c #D2D2D4",
"#X c #E0E1DF",
"$X c #FFEED6",
"%X c #FFF2D1",
"&X c #FFFFFE",
"*X c #E5E6E5",
/* pixels */
"b b b n b N ,.,.n n ,.m b N 2.c v N N n N N N n n N 2.n n 8.2.b ",
"2.N N N V b v b b n 2.b N 2.n b n N 7.2.N n N b b N N n 3.n b V ",
"n b n 2.N c n b b n 2.n n n N N V M N c n n N n n V 8.N b n n 2.",
"n n n n b n n n N n n N 7.9.n N c m n N 7.8.N b V n v 2.8.8.q.7.",
"V 6.N n v b n b b n 0.M 6 $ ; $ < Y u p n 7.N n b b 7.n n n 8.9.",
"N V b N N N n n N 7.p @ ^ [.~.X X S F.^ f a 3.n b 6.7.n M n V 8.",
"n N b N N N b b 8.& > @X@XU         * !.Q.R 7 n b n n 8.n 2.7.8.",
"n v v n n N n 7.% F #X/           X   > Q.)._ 6 6.b N M n 7.n ,.",
"2.n b b n n 2.s   / *                   ^ F.OX) q 7.n m b ,.n n ",
"n n n n b n n +       X                 = Q.~.@Xf n 6.n n 2.N 3.",
"b n n n b 3.s                           . F.` oX/.q 7.2.b n 7.3.",
"b n n N b 2.$ *                           / P.).oX7 N N N 2.9.n ",
"b n c N 2.b . [.<               * ^       ^ !._ +XY c 6.6.8.6.N ",
"n b n n 3.x   *XoX          = _.&X].  X   ^ ~.` [.( z q.N 8.7.N ",
"n n N v q u   R *X=   X U ].&X&X&X*       / Q.` './ % p M 7.n M ",
"b <.d 0 m.*.X     X   . [.&X&X&X/   X   . ` ^.^._.R j.>.1 l 6.V ",
"0.z O.$X%Xx.2 X           = R =         > /.Q.G.T r N.&X{.h l 3.",
"M h }.|.y.a.p.o.1 .                     ! ) E j o.p.u.M.$X{.0 0.",
"l k v.t.a.x.i.d.f.r.X.0 & o O X X . o 3 k X.r.d.p.i.x.u.t.l.h 1.",
"n y +.l.c.i.i.y.y.p.h.b.h.g.s.s.s.s.g.h.h.h.p.y.i.i.i.x.;.| s q.",
"b v y } $.;.z.i.i.i.y.y.i.d.f.f.f.f.d.i.i.y.i.i.c.z.;.&.{ s 7.N ",
"M V 8.6 E { @.-.=.;.l.l.l.k.k.k.k.k.l.l.l.;.:.=.&.[ { A 9 e.9.7.",
"n n 8.x `.A.K - 5 } ..@.#.&.&.%.$.&.#. .@...{ 2 ] `.S.Z., 4.q.n ",
"n N 3.c D.A.Z ~ Z.) U.L G Z 4 Q G : ' (.L V.C J P n. XY.H 4.0.2.",
"b n q.c D H e I.C.( R.S.L , W XXJ.B.S .XW.K.K H.L.# g ! A c n N ",
"N N N n p 4.x A 7 W Y.C 7 4.z ' E.C.7 q ^.T.K i I 8 5.m z V 7.9.",
"N V N 7.2.b x a 5.8 D a 7.7.q.w D.P t 0.w Q G B x x 7.M q.N V 8.",
"n 3.6.2.b 2.N 6.7.x v 7.7.7.7.3.d < n n q.c y 6.w.9.N q.6.n 2.6.",
"6.V 8.n n n n 6.q.w.q.6.8.7.V b n N q.9.8.q.q.8.0.2.9.9.7.7.0.6.",
"M n N n 6.2.n n N n b N 8.3.b m V q.q.9.8.6.3.N 6.7.8.8.q.7.8.8.",
"0.V V n M 2.6.6.n n N 9.0.7.3.3.6.6.7.3.7.9.q.q.q.9.8.7.7.7.7.8.",
"q.6.3.n n M M V 7.8.7.7.q.8.3.n N 9.7.8.V V V 6.3.7.2.0.3.3.7.N "
};
