/* XPM */
static char *_d999495ac3447bfba89cfd265d6d224e9MUPhETV10efGsL[] = {
/* columns rows colors chars-per-pixel */
"32 32 158 2 ",
"   c #101B0D",
".  c #281806",
"X  c #2B1F0A",
"o  c #341B04",
"O  c #3A1C04",
"+  c #282109",
"@  c #2B2C0E",
"#  c #362206",
"$  c #3F2806",
"%  c #342309",
"&  c #39260A",
"*  c #342A0B",
"=  c #3E2C09",
"-  c #2D300F",
";  c #3E320C",
":  c #2D3411",
">  c #313511",
",  c #3E3710",
"<  c #3E3C11",
"1  c #303E18",
"2  c #441F00",
"3  c #422405",
"4  c #4D2405",
"5  c #442A05",
"6  c #4C2A06",
"7  c #412E09",
"8  c #4A280C",
"9  c #512604",
"0  c #532B06",
"q  c #582F04",
"w  c #522E0C",
"e  c #40320B",
"r  c #41390F",
"t  c #523106",
"y  c #5D3606",
"u  c #5E3807",
"i  c #56310C",
"p  c #5B340C",
"a  c #433C11",
"s  c #643506",
"d  c #693706",
"f  c #603907",
"g  c #6D3B06",
"h  c #62350A",
"j  c #6C3708",
"k  c #643B0B",
"l  c #6B3D0A",
"z  c #703704",
"x  c #723E06",
"c  c #703E09",
"v  c #344017",
"b  c #34451B",
"n  c #394519",
"m  c #364C1C",
"M  c #3D4B1B",
"N  c #3C521D",
"B  c #3E5421",
"V  c #454012",
"C  c #424F1C",
"Z  c #41521D",
"A  c #6E410C",
"S  c #734207",
"D  c #7B4407",
"F  c #74440B",
"G  c #7C4609",
"H  c #7D490B",
"J  c #415722",
"K  c #435C22",
"L  c #495D23",
"P  c #4A6526",
"I  c #496528",
"U  c #586F27",
"Y  c #526E2A",
"T  c #4E7229",
"R  c #55742A",
"E  c #5A762B",
"W  c #56792C",
"Q  c #5D7B2D",
"!  c #5D7D30",
"~  c #617D2E",
"^  c #617E30",
"/  c #834A07",
"(  c #824A09",
")  c #834B09",
"_  c #814909",
"`  c #824D0B",
"'  c #834D0B",
"]  c #844E0A",
"[  c #854F0B",
"{  c #814E0C",
"}  c #834D0A",
"|  c #8A4F08",
" . c #8B4F08",
".. c #84500B",
"X. c #87500A",
"o. c #86510B",
"O. c #89500A",
"+. c #88520B",
"@. c #89530B",
"#. c #8B540B",
"$. c #8D540B",
"%. c #8C550B",
"&. c #8D550B",
"*. c #8E550B",
"=. c #8E560B",
"-. c #89530C",
";. c #8C540B",
":. c #90560A",
">. c #90570B",
",. c #95570B",
"<. c #91550A",
"1. c #91580B",
"2. c #945A0B",
"3. c #95580C",
"4. c #94590C",
"5. c #955B0C",
"6. c #92590B",
"7. c #9C5E0C",
"8. c #9D600D",
"9. c #A0610D",
"0. c #5F802C",
"q. c #5E802E",
"w. c #5F802E",
"e. c #5F802D",
"r. c #5F8030",
"t. c #5D8231",
"y. c #60802C",
"u. c #61802C",
"i. c #61812C",
"p. c #61802D",
"a. c #61812E",
"s. c #61812F",
"d. c #62812E",
"f. c #63802F",
"g. c #63812F",
"h. c #66812F",
"j. c #65832F",
"k. c #63822E",
"l. c #69842F",
"z. c #6A892F",
"x. c #608231",
"c. c #608332",
"v. c #658130",
"b. c #648231",
"n. c #668331",
"m. c #658232",
"M. c #638430",
"N. c #638631",
"B. c #618433",
"V. c #648431",
"C. c #668534",
"Z. c #648331",
"A. c #688732",
"S. c #698632",
"D. c #668932",
"F. c #698931",
"G. c #6A8C32",
"H. c #6A8B33",
/* pixels */
"W E E Q E ~ 0.0.Q Q d.R E ~ ~ E U ~ ~ Q ~ ~ ~ Q Q ~ d.Q Q B.d.E ",
"d.~ ~ ~ ^ E W W W Q d.E ~ d.d.~ ^ v.C.d.~ Q ~ W E ~ ~ Q j.Q W ^ ",
"Q E W d.~ E Q R E W d.Q Q ~ E P I R d.E Q Q ~ Q Q ^ v.Q E Q Q d.",
"Q Q ~ d.~ d.d.~ j.Q Q ~ Q j.C 6 t @ E Q v.v.~ E ~ Q E ~ v.B.S.V.",
"^ B.P J B J K K J R x.! x.B.b D ,.% P R ! ! t.Q R W B.Q ! x.G.F.",
"v.L $ f u u y u 0 * a a a < * 5 6 # , a a a a a r a V a a M L Q ",
"~ M q 3.3.3.H S S d G F _ | O.O.X.F _ c c c l _ F l s s c S 5 L ",
"~ R   O S ' F w F k H F i -.&.&.p l { A k k A H A A h F F 9.l K ",
"W - 7 f D ] H l 2.&.O.>.i h &.p k &.X.>.F F 2.#.1.' l &.] s < W ",
"B q 7.&.] _ H f H H &.O.X.p p l &.] G _ l l ] _ O.H k F l 3 > d.",
"J & c D H _ D i p A &.X.1.F 8 X.&.O.O.&.F S O.] ' H l &.#.7.f P ",
"E : 6 H O.&.H A >.O.&.>.F p S w ] &.O.1.F F 2.&.=.' A &.O.s C 0.",
"L 3 G O.O.6.F p { F H F w { 1.F w X.{ F l l F F G l p ' ] 6 : R ",
"B.1 2 s 9 g D h d h x g D | ] ;.S D G h k l l ] O.F F ' 1.8.0 J ",
"Q R M N m @ e = ; e ; ; ; ; % o O o * * & 4 4 0 0 0 0 0 6 4 + R ",
"E Q x.F.D.W W W t.W W W ! t.b 4 j X T R I B J N J B N N J B P V.",
"x.0.~ Q Q W Q 0.l.~ E E ~ ~ v d >.% R E V.j.~ V.~ Q Q d.F.v.j.Q ",
"B.x.Q Q Q Q ~ ~ Q E ~ W Y ^ n g ;.% R E V.W E ^ E E V.~ ~ v.V.l.",
"E Q d.Q Q E Q V.W Q W W W Q M S >.7 E l.j.W Q ^ x.Q d.B.Q x.G.S.",
"E W W ~ E E ~ V.V.~ W B.~ S.C S >.7 W z.V.Q Q S.l.Q Q d.W C.D.V.",
"W E Q x.Q R Q B.B.Q Q ^ V.S.M S >.7 W ~ d.Q Q ~ d.d.D.x.D.G.v.~ ",
"! ^ ~ ~ x.v.Q Q ~ d.d.Q ~ x.M S | 7 E ~ ~ E d.v.v.v.V.V.V.S.S.V.",
"Q Q ^ ~ j.Q E ~ ~ d.~ ~ E v.M c / 7 R j.E Q ^ ^ Q Q v.v.Q V.H.0.",
"Q ~ ~ F.j.x.Q Q Q R ~ Q Q B.Z S ;.= Q S.x.j.Q ~ ~ j.j.x.~ D.D.d.",
"W Q S.l.j.v.~ Q Q Q v.E Q G.Z S >.= R l.V.G.D.V.d.Q Q V.V.~ W ~ ",
"~ ~ Q l.v.j.E ~ d.x.Q x.j.F.Z S >.= Y B.V.H.! d.V.d.Q d.x.v.C.S.",
"~ ^ ~ x.Q E E ! V.^ ! W ~ G.Z S ;.= R Q Q x.~ j.F.j.d.Q F.~ x.v.",
"Q l.x.d.W d.~ ^ v.v.V.~ V.G.C g ) % Y ~ V.V.Q x.F.v.j.G.v.Q d.B.",
"x.^ v.Q Q Q Q v.F.G.V.v.v.G.b 9 z . 0.F.v.S.V.n.D.d.V.S.V.V.D.x.",
"! Q ~ Q x.d.Q Q ~ Q W ~ x.D.K > n n S.S.x.x.v.~ x.V.v.V.S.V.v.V.",
"D.^ ^ Q ! d.x.x.Q Q ~ S.D.V.F.F.C.H.V.j.V.S.S.F.F.S.v.V.V.V.V.v.",
"F.x.j.Q Q ! ! ^ C.v.V.C.S.v.j.Q ~ V.V.v.^ ^ ^ x.l.V.d.D.l.l.V.~ "
};
