/* XPM */
static char *e1e35914566f414f8345677185036873rPGyKVxHCqKZDzcI[] = {
/* columns rows colors chars-per-pixel */
"32 32 158 2 ",
"   c #566F2A",
".  c #56732A",
"X  c #5A762C",
"o  c #5D7B2D",
"O  c #5E7D30",
"+  c #617D2E",
"@  c #617E30",
"#  c #5F802E",
"$  c #5F8031",
"%  c #61802E",
"&  c #60802F",
"*  c #61802F",
"=  c #61812F",
"-  c #63812E",
";  c #63802F",
":  c #62812F",
">  c #63812F",
",  c #60822E",
"<  c #61832F",
"1  c #63822E",
"2  c #62822F",
"3  c #63832F",
"4  c #63802D",
"5  c #65822D",
"6  c #64802E",
"7  c #64812E",
"8  c #64802F",
"9  c #64812F",
"0  c #67802E",
"q  c #66812E",
"w  c #64822E",
"e  c #64822F",
"r  c #64832F",
"t  c #65832F",
"y  c #66832E",
"u  c #67832F",
"i  c #63852F",
"p  c #64842F",
"a  c #65842F",
"s  c #64852F",
"d  c #65852F",
"f  c #66852F",
"g  c #67852F",
"h  c #65862F",
"j  c #67862F",
"k  c #63822E",
"l  c #68832F",
"z  c #69892F",
"x  c #618030",
"c  c #618031",
"v  c #638030",
"b  c #638130",
"n  c #638031",
"m  c #628131",
"M  c #618231",
"N  c #628230",
"B  c #638330",
"V  c #628231",
"C  c #638231",
"Z  c #628331",
"A  c #638132",
"S  c #628133",
"D  c #618332",
"F  c #628332",
"G  c #648030",
"H  c #648130",
"J  c #648131",
"K  c #658131",
"L  c #668130",
"P  c #668131",
"I  c #648230",
"U  c #658230",
"Y  c #648331",
"T  c #668230",
"R  c #678230",
"E  c #668330",
"W  c #678330",
"Q  c #668231",
"!  c #668331",
"~  c #648132",
"^  c #658132",
"/  c #648232",
"(  c #658232",
")  c #658332",
"_  c #678232",
"`  c #668332",
"'  c #638732",
"]  c #648430",
"[  c #648530",
"{  c #658530",
"}  c #648431",
"|  c #668430",
" . c #678431",
".. c #668531",
"X. c #678531",
"o. c #658631",
"O. c #658731",
"+. c #668630",
"@. c #678630",
"#. c #668730",
"$. c #678730",
"%. c #668631",
"&. c #678631",
"*. c #668731",
"=. c #648432",
"-. c #658432",
";. c #658433",
":. c #668532",
">. c #678532",
",. c #668533",
"<. c #658632",
"1. c #648732",
"2. c #658633",
"3. c #668632",
"4. c #678632",
"5. c #678733",
"6. c #668534",
"7. c #678735",
"8. c #648331",
"9. c #688531",
"0. c #698730",
"q. c #688631",
"w. c #688532",
"e. c #688732",
"r. c #688733",
"t. c #6A8733",
"y. c #6A8735",
"u. c #698632",
"i. c #638932",
"p. c #648831",
"a. c #658831",
"s. c #668831",
"d. c #658833",
"f. c #668832",
"g. c #678832",
"h. c #678932",
"j. c #668B32",
"k. c #678932",
"l. c #688830",
"z. c #698831",
"x. c #698A31",
"c. c #6A8B31",
"v. c #688832",
"b. c #698932",
"n. c #698833",
"m. c #6B8A33",
"M. c #6A8B33",
"N. c #6B8C30",
"B. c #688D32",
"V. c #6D8D32",
"C. c #698834",
"Z. c #688934",
"A. c #6B8834",
"S. c #6A8934",
"D. c #698D35",
"F. c #6B8D34",
"G. c #6E8D35",
"H. c #698933",
/* pixels */
"+ -.d d p.1 r.d c @ @ @ G -.r.+ o 6 G S.-.-.G 6.@ O O o o 6 c v.",
"G -.-.-.-.G S.v.v.S.r.-.6 -.-.G d d -.p.r.+ o o c c 1 O o @ @ p.",
"G G -.S.-.G -.c + G c G r.m.d @ . o d G + o o + o o 1 c o + o O ",
"c p.-.-.r.-.1 p.G -.r.G r.z N.o o @ -.G G -.N.B.G o o o o G @ c ",
"c 1 o G G.6 G v.c o -.-.o X o o o -.-.-.+ -.G G @ + 1 o 1 c d o ",
"G c + v.o 1 6 v.1 o c o o o c c 1 -.-.+ o O @ -.O X X o c + @ + ",
"r.6.G D 1 o 1 -.1 O D.p.c X + c S.-.6 d c o c 1 + X 6 G d o + + ",
"+ o + -.-.o o 1 -.p.B.-.6 o c p.1 v.-.+ X G o o o + G 6 d r.o o ",
"1 i.p.+ c 6 6 + 1 o i G G d o -.# p.o o o + . o o o c 6 v.+ + o ",
"# G.-.o G G o o @ @ o O + o @ o -.+ + X + + 1 + + X o 6 + @ o o ",
"-.S.r.-.-.-.G G G 1 X + + + w.1 + o o + o 1 1 + o o c c + + @ O ",
"+ G G.p.c -.1 + + o o 6 X G -.+ + o G -.@ o o D D o . o c o X o ",
"-.p.6.o 1 o o l S.o o -.d 6 1 + + G G + D o + -.-.+ X X + o . X ",
"r.G.c o D 1 o c @ o o 6 d 1 1 D o o X o o o o o -.o X o o 1 o X ",
"d -.-.1 + -.X o G X X v.X o + v.c o X . o o X o + + o o o o c D ",
"+ + X 6 o . . X O X + G X o G r.+ . o o . X o d o o o o + 1 # c ",
"c O @ + o o o G o 6 @   . o 1 + o o o O o o o D o o . # 1 o o o ",
"O o 1 o X o o + + o o o o o o o 1 d -.c o -.D o + o o o o o o o ",
"+ -.G + + + + + D 1 1 X o o 1 1 + r.d r.O c o o o o o o o + X o ",
"+ c G c c + o d -.d -.-.1 1 o X X D + o o o X X o o + + + X o X ",
"o r.1 o + o o 1 o 1 + X c o + . X O o o + X o o + o o X + X o X ",
"6 -.o . i + $ o o o o X o o + o d 6 + o o o # # 1 d o X o o o X ",
"6 + 1 o o @ c o o @ @ o . o o 1 o o X G 1 c o o 1 + o o o o o o ",
"o o # X . + + o + + + # X o X + p.c 1 v.o + o + o o o o X o o 1 ",
"# o -.o O + X o + o X o + + o 1 @ -.-.1 o o o 1 + o + o o . X o ",
"G -.1 o G o o X X X + 1 6 + @ + G v.o o @ c o o X X + + + o + o ",
"G @ o O o -.c X o + o o X X o o G X X o c c o + o o + + + X @ + ",
"r.D o o o -.X X o 1 @ + X   X o @ o + G o c o X X o X X o + c O ",
"-.v.D G 4 X o @ X + G G o X o + + + + o + o o + o o o X o o o o ",
"1 o o X + G @ o o + o o o + o O + + o o o 1 o X X o X + 1 o X o ",
"@ o o d o + + X o + o + 1 6.6 o o o 1 + X 1 o o o . X @ + + + 1 ",
"X 1 D o o 1 + o o + + + o + + X X 1 + X . # o o # # + X o X X o "
};
