/* XPM */
static char *_218f3270d0f49aaf0c7675fecc90fecdfBDanfKqWTFlCdR[] = {
/* columns rows colors chars-per-pixel */
"32 32 204 2 ",
"   c #010101",
".  c #090A05",
"X  c #04040A",
"o  c #0A090B",
"O  c #080709",
"+  c #140D0B",
"@  c #170807",
"#  c #0C1102",
"$  c #0F1B03",
"%  c #111607",
"&  c #121C05",
"*  c #12130D",
"=  c #191A0B",
"-  c #010B1B",
";  c #090C13",
":  c #100F12",
">  c #08121B",
",  c #131315",
"<  c #1B1514",
"1  c #1B1914",
"2  c #1B1B1D",
"3  c #13131A",
"4  c #201408",
"5  c #231E1B",
"6  c #2B1E17",
"7  c #311F16",
"8  c #270303",
"9  c #162205",
"0  c #162109",
"q  c #1B220C",
"w  c #1B2809",
"e  c #1D2215",
"r  c #222C0D",
"t  c #23350A",
"y  c #22211D",
"u  c #242913",
"i  c #253210",
"p  c #2A3A13",
"a  c #273913",
"s  c #313F17",
"d  c #332C0E",
"f  c #000A23",
"g  c #000F2C",
"h  c #031225",
"j  c #05182D",
"k  c #1A1B21",
"l  c #031735",
"z  c #1F2020",
"x  c #09203B",
"c  c #2E2B24",
"v  c #2C2B2C",
"b  c #242129",
"n  c #332423",
"m  c #382B25",
"M  c #35352C",
"N  c #2F3031",
"B  c #3C3D3D",
"V  c #383534",
"C  c #212933",
"Z  c #493E36",
"A  c #573935",
"S  c #472F2C",
"D  c #324515",
"F  c #364B18",
"G  c #364A16",
"H  c #3E551C",
"J  c #3C5318",
"K  c #3F5720",
"L  c #40551E",
"P  c #485D1C",
"I  c #514309",
"U  c #475E20",
"Y  c #44413E",
"T  c #4C453D",
"R  c #50483F",
"E  c #7E5139",
"W  c #4C6423",
"Q  c #526B25",
"!  c #556D28",
"~  c #56732A",
"^  c #5A752B",
"/  c #5D7B2D",
"(  c #577427",
")  c #5E7C30",
"_  c #617D2E",
"`  c #617E30",
"'  c #001E47",
"]  c #072448",
"[  c #112B49",
"{  c #022A5D",
"}  c #012452",
"|  c #002D66",
" . c #07346A",
".. c #013472",
"X. c #153964",
"o. c #4C3F40",
"O. c #3F4140",
"+. c #454447",
"@. c #564C46",
"#. c #5F5141",
"$. c #575556",
"%. c #4D4D52",
"&. c #685A4B",
"*. c #675D51",
"=. c #6D514B",
"-. c #75675C",
";. c #5A5A63",
":. c #67666D",
">. c #797168",
",. c #716F74",
"<. c #9D573D",
"1. c #895F52",
"2. c #815C47",
"3. c #9A6B5F",
"4. c #847465",
"5. c #877A6B",
"6. c #877A74",
"7. c #AE7B6B",
"8. c #AF7457",
"9. c #5F802E",
"0. c #63822F",
"q. c #68852F",
"w. c #658331",
"e. c #698632",
"r. c #668932",
"t. c #6B8B33",
"y. c #6D9034",
"u. c #749538",
"i. c #708B37",
"p. c #AF9327",
"a. c #8B8276",
"s. c #98887B",
"d. c #BC876F",
"f. c #A18E7C",
"g. c #BB8674",
"h. c #CC907C",
"j. c #D49175",
"k. c #013A84",
"l. c #003F92",
"z. c #003F99",
"x. c #06489A",
"c. c #034FB0",
"v. c #7C7A80",
"b. c #005ED3",
"n. c #095DC4",
"m. c #097DFF",
"M. c #0674FA",
"N. c #0782FF",
"B. c #9D8D81",
"V. c #9F9184",
"C. c #8D8B90",
"Z. c #989697",
"A. c #89888B",
"S. c #A99683",
"D. c #B19F8B",
"F. c #B3A18D",
"G. c #BEAB96",
"H. c #BEAB96",
"J. c #ABABAC",
"K. c #B7ACA4",
"L. c #BAB8B9",
"P. c #D19480",
"I. c #C99580",
"U. c #C0AC97",
"Y. c #C2AE99",
"T. c #C3AE99",
"R. c #CBAF95",
"E. c #C5B29C",
"W. c #CAB49D",
"Q. c #E3A18A",
"!. c #ECAB93",
"~. c #F5AD94",
"^. c #F9AB91",
"/. c #FAB89F",
"(. c #CBB6A0",
"). c #CCB8A3",
"_. c #D1BBA5",
"`. c #FFBDA2",
"'. c #F5B9A0",
"]. c #D8C3AC",
"[. c #FFC6AA",
"{. c #FFC1A6",
"}. c #E4CBB3",
"|. c #EACFB7",
" X c #EED4BB",
".X c #F9DABD",
"XX c #F3CBB5",
"oX c #C4C4C3",
"OX c #D0D1CF",
"+X c #D7D7D6",
"@X c #D6CCC5",
"#X c #F5DBC1",
"$X c #FFE6CB",
"%X c #FFEACE",
"&X c #FDE2C7",
"*X c #FFEDD1",
"=X c #FFF2D5",
"-X c #FFF7D9",
";X c #FFF9DC",
":X c #E5E6E4",
">X c #FFFFE2",
",X c #FFFFEC",
"<X c #F2F2EF",
"1X c #F2F3F2",
/* pixels */
"^ ^ ^ / ^ _ 9.9./ / 9.~ ^ 0.r./ ~ / / w.w.q.0.^ ^ 0.e./ / w.0.^ ",
"0._ _ _ ` ^ ^ ^ ^ / _ ^ t.^ r # % u e u ! ( = M c & Q 0.0./ ^ ` ",
"/ ^ / 0._ ^ / ^ ^ / t./ J # ; 2 o o ,   . & : %.$.b % _ ^ / / 0.",
"/ / / / ^ / / / _ 0.D # V < V $.B O z ,     @ < O.Y o P t.w.t.e.",
"` w._ / ~ ^ / ^ / & v B.].*.  : O   , c M 5 @ 8 , B X L w./ w.e.",
"_ ` ^ _ _ _ / w.w Z ].W.U.Y.s.-.*.>.F.E.W.W.a.O O o q / ) / ` w.",
"/ _ ^ _ _ _ _ U 1 (.T.G.Y.Y.(._._._.E.Y.Y.Y.(.5   G / e./ _ e.w.",
"/ ~ ~ / / _ e.t $.].G.Y.Y.Y.U.U.G.H.Y.Y.G.(.S.o o ! w.) / e./ 9.",
"0./ ^ ^ / ^ e.9 6._.G.Y.Y.Y.Y.Y.Y.Y.Y.Y._.E.c z , F e.~ ^ 9./ / ",
"/ / _ / ^ / e.0 s.W.H.Y.Y.Y.Y.Y.G.G.Y.E.5.1 2 +., D t.^ / 0._ q.",
") 0 p w.~ / t.& K.}.Y.G.G.G.G.E.]. XW.5 o N +.B 3 D e.0.^ / e.q.",
"L k , Q / / 0.& L.=X X|.|.}.|..X%X*X'.4 B $.v v , D q._ _ 0.e./ ",
"D Z.,.& t./ e.9 Z.>X=X*X$X%X=X-X X}.[.1.3 2 < 5   H e./ w.w.w._ ",
"W L.oX2 J 0.0.i o @.S.}.$X XD.-.* 4.[.h.  m 7.j.1.0 q./ / w.e._ ",
"H J.OXA.. / e.s o     R ;Xa.    o }.`.Q.+ 3.  <.^.* ~ ^ / 0./ ) ",
"G B +XOX$.9 y.D   .   (.*X&Xc     T.{.~.g.Q.g.d.3.$ 0.^ _ ` ) w.",
"r.$ v.1XoX: W K X   1 #X&X*X*.  * |./.~.!.< A S . U / / 0.^ _ _ ",
"r.^ . L.:XC.& G %.K.W.*X&X=X.X4.E.$X!.`.7.X   $ / / e._ 0.e.e.q.",
"~ e.J k :X+X+.& e @X,XD.T -.%X>X-X$X`.j.+   u w.e./ 0.w./ w.t.e.",
"^ ^ r.t +.:XJ.y 9   >.V.S.f.E.E.E.d.*.]   r r.w.q./ / 0.^ w.r.e.",
"^ ^ / t.$ :.<X:.  =     h > 6 m   f f M.x.. W w._ 0.e.w.r.t.w._ ",
") ` _ ` _ & ;.y I 4 } ] x.z.E 8.} M.- n.m.x.. ~ w.w.e.e.e.e.e.e.",
"/ / ` / t.D + p.d @  .{ l.N.j h m.N.| { m.c.k.# _ / w.w./ e.t./ ",
"/ _ _ q.t.w Z d k m 7   C X.- ' k.{ l - m.c.-   F t.0.w._ r.r.0.",
"^ / e.q.q.` 9 3 ,X4.    T 4.a.5.5.Z &.= ' j 2.P.. ( / e.e._ ^ / ",
"_ _ / q.w.q.e.& -..X#.  ' | o [ [ ] } | O W.XXA i e./ 0.w.w.w.e.",
"_ ` _ w./ ~ ^ ~ # S n u h x.g ..M.b.l.l X y * t t.q.0./ r./ w.w.",
"/ q.w.0./ 0./ w.w.H a . #.&.<   > - = R.I.+ H u.t.q.q.t.w./ 0.w.",
"w.` w./ / / / 0.t.u.u.& Y .X~.1 Q P , (..XA F i.e.0.e.e.e.e.r.w.",
") / _ / w.0./ / / / ~ 1 @.m 7.+ / t o.c g.A p e.w.e.w.w.t.e.w.w.",
"r.` ` / ) 0.w.w./ / w.s u 0 & a w.L e q % = W t.e.e.w.e.e.e.e.w.",
"t.w.q./ / ) ) ` w.w.e.t.t.t.t.w._ t.r.w.w.e.w.w.q.e.0.r.q.q.e._ "
};
