/* XPM */
static char *_a7284567e6a43cca7b1afad713fe14abqXPkqYCsJfgyqeD[] = {
/* columns rows colors chars-per-pixel */
"32 32 192 2 ",
"   c #020302",
".  c #02050B",
"X  c #0D0B0A",
"o  c #0A0B06",
"O  c #120D08",
"+  c #0E100A",
"@  c #141C0B",
"#  c #19150A",
"$  c #100F10",
"%  c #0E1519",
"&  c #141313",
"*  c #1A1514",
"=  c #1B1B1B",
"-  c #121A1A",
";  c #261C19",
":  c #210B0A",
">  c #1B230C",
",  c #1F280F",
"<  c #1F2513",
"1  c #222414",
"2  c #282516",
"3  c #242C13",
"4  c #23211D",
"5  c #2B231D",
"6  c #252A1A",
"7  c #32281A",
"8  c #263213",
"9  c #293415",
"0  c #2D3C16",
"q  c #303F17",
"w  c #3B320B",
"e  c #06192F",
"r  c #0B1B29",
"t  c #081A24",
"y  c #021936",
"u  c #011D3E",
"i  c #021630",
"p  c #131B26",
"a  c #0D233F",
"s  c #17273B",
"d  c #222221",
"f  c #2A2522",
"g  c #2B2C25",
"h  c #2C2B2C",
"j  c #272924",
"k  c #342520",
"l  c #3A2B24",
"z  c #322E29",
"x  c #2F3424",
"c  c #33312D",
"v  c #39372A",
"b  c #343433",
"n  c #3C3A34",
"m  c #3A3A39",
"M  c #48352D",
"N  c #413B34",
"B  c #4C3C36",
"V  c #573D35",
"C  c #324217",
"Z  c #354519",
"A  c #37491A",
"S  c #3A4C1C",
"D  c #3E521C",
"F  c #40561E",
"G  c #475B1F",
"H  c #415520",
"J  c #455B21",
"K  c #495E26",
"L  c #41403F",
"P  c #58463C",
"I  c #61453B",
"U  c #4C6224",
"Y  c #4F6824",
"T  c #526B26",
"R  c #536D28",
"E  c #51672F",
"W  c #567229",
"Q  c #5A762B",
"!  c #5D7B2D",
"~  c #547027",
"^  c #5F7D30",
"/  c #617E2E",
"(  c #617F30",
")  c #04244A",
"_  c #0A2648",
"`  c #152D4A",
"'  c #052A57",
"]  c #193559",
"[  c #02326D",
"{  c #073164",
"}  c #0A3E7E",
"|  c #4C4640",
" . c #4B4B4A",
".. c #464646",
"X. c #544C45",
"o. c #59534C",
"O. c #5C5958",
"+. c #674A40",
"@. c #675C51",
"#. c #6F5A51",
"$. c #6C6155",
"%. c #776B5E",
"&. c #666565",
"*. c #776D66",
"=. c #77716A",
"-. c #777676",
";. c #897422",
":. c #865E51",
">. c #8C6354",
",. c #926658",
"<. c #A1614B",
"1. c #86796C",
"2. c #887769",
"3. c #997769",
"4. c #8E7F70",
"5. c #AA7766",
"6. c #A77867",
"7. c #5F802F",
"8. c #62812F",
"9. c #668531",
"0. c #658331",
"q. c #688632",
"w. c #668832",
"e. c #6A8933",
"r. c #98897A",
"t. c #B9836E",
"y. c #AF8873",
"u. c #BA8875",
"i. c #C0826D",
"p. c #C9907B",
"a. c #D2917A",
"s. c #C18976",
"d. c #013F8A",
"f. c #013B81",
"g. c #02428E",
"h. c #034391",
"j. c #034FAB",
"k. c #0455B8",
"l. c #045FCE",
"z. c #0563D5",
"x. c #066BE4",
"c. c #0670F0",
"v. c #0874F8",
"b. c #878786",
"n. c #97928F",
"m. c #A99784",
"M. c #A79584",
"N. c #B09C89",
"B. c #A69C91",
"V. c #B6A28E",
"C. c #B9A692",
"Z. c #BDAA96",
"A. c #B8A694",
"S. c #ADA39B",
"D. c #AEAEAE",
"F. c #A5A4A3",
"G. c #B5AFAB",
"H. c #AFB0AD",
"J. c #BEB5AC",
"K. c gray72",
"L. c #D69983",
"P. c #C2A994",
"I. c #C2AE99",
"U. c #C2AE99",
"Y. c #C3AE9A",
"T. c #CBA995",
"R. c #C5B19B",
"E. c #C6B29D",
"W. c #C7B49F",
"Q. c #C8B49E",
"!. c #D2B19B",
"~. c #F0AB92",
"^. c #E9B099",
"/. c #F7B59C",
"(. c #F9B49A",
"). c #CDB7A1",
"_. c #D0B6A0",
"`. c #FABAA1",
"'. c #DBC4AD",
"]. c #D7C8BA",
"[. c #E5CCB4",
"{. c #E9D1B8",
"}. c #F3D9BF",
"|. c #C6C6C6",
" X c #CAC9C9",
".X c #DCDCDC",
"XX c #F4DBC1",
"oX c #FEDDC2",
"OX c #FDE2C7",
"+X c #FFE5CA",
"@X c #FFE9CE",
"#X c #FFEAD1",
/* pixels */
"Q 8.8.! ! 8.Q ~ Q Q / / ! Q Q T ~ ! / Q Q ! ! ! ! ! ! ! ! Q Q Q ",
"/ ! ! 8./ U 3 x v 3 Y U 9 < 1 @ @ 8 T / ! / ! ! Q Q Q ! / / ! / ",
"8./ ! ! Q > h  ...= @ o . & X $ = & > F ~ 8.! Q Q ! Q / 8.Q Q Q ",
"9.9.0.0.J & m m = O     & = X b  .h 4 N 1 A Q / ! ! ! Q Q ! ! ! ",
"9.9.! ! H & b * : * f v c = . & = & @.Z.r.N 3 R Q ! Q Q ! ! 0./ ",
"0.0.! ! Q 3 & . & 1.A.Z.A.m.*.$.%.r.A.I.R.Z.X.9 Q ! / / / Q / / ",
"0.9.8.! 0.~ C   4 C.Y.I.I.Y.R.R.R.R.I.I.I.R.V.g J ! / / / ! ! ! ",
"! ! 0.! ! / U + & r.R.I.I.I.I.I.I.I.I.I.I.I.W.O.C / / ! ! Q Q ! ",
"! ! 7.Q Q / S * d n N.R.I.I.I.I.I.I.I.I.I.I.R.1.8 ! ! ! Q Q ! 7.",
"8./ 8.! ! 0.A = m d z 2.V.I.I.I.I.I.I.I.I.I.R.r.3 ! ! Q ! Q Q ! ",
"8.9.! Q 8.8.A = n L b = c P.{.'.Q.I.I.I.I.R.'.S.3 / ! Q ! C 3 W ",
"/ 9.8./ / / A & h c ..n l ^.+X+XXX[.[.[.{.}.@XG.3 Q ! ! U 4 j H ",
"8.0.0.0./ 8.S X 5 ; 4 = :./.[.[.+X@X+X+X+X+X+Xn.8 ! ! ! 8 &.b.H ",
"/ 0.0./ ! Q 3 :.i.>.l X s.`.4.g $.m.[.OX'.M.o.= 9 ! ! D c D.H.E ",
"/ / 8.! Q R 2 a.<.5 :.k L.`._.*   X r.OX@.    X C / R 1 b.|.F.U ",
"0.! ( / Q Q 3 ,.5.5.p.u.~.`.P.X   c {.+XZ.X     A ! 9 O.|.|. .F ",
"/ / ! 8.Q Q J 1 M B l L.(./.'.4   $.OX+X[.z   X S J g K..X-.8 ! ",
"8.9.0.8.8.9.! R 3 . $ 6.(./.oXZ.4.[.OXXXOX).B. .A 3 b..XD.6 T 0.",
"9.e.0./ 8.8.! 0.Q 3 . ; t.(.oX@X@XXX1.@.V.#XJ.g >  . X Xn D ! Q ",
"9.9.9.! / ! ! 0.q.Q > . ] #.y.P.Q.I.r.r.r.*.= > g F. XO.0 Q Q Q ",
"/ 0.e.w.0.9.8./ ( J - g.z.y y & M l p r .   O o &. X-.8 ! ! Q Q ",
"9.q.e.9.9.9.0.0.Y - d.c.k.u l.{ >.+.h.g.) u # w x O.6 ~ / / ! ^ ",
"8.e.9.8.0.0.! ~ @ [ j.v.[ [ c.z.a a x.h.' ' # w ;.2 C 8./ / ! ! ",
"8.w.w.8.0.0.8.A & i j.x.e a { } _ r ] s . ; l c 7 v 0 9.9./ / ! ",
"/ ! 0.9.9.! ~ 1 6.#.s ) = o.| =.=.-.=.L   X 2.].j 8 Q 8.9.0.! Q ",
"9.9.0.0.8.! ! 0 P T.m.- ' _ _ ` ` % ' u   I ^.*.3 Q 8.0.8.! / / ",
"0.0./ 9.( 8.8./ A 6 f $ _ f.k.z.[ y d.e 1 k M 3 T Q Q ! 0./ ( / ",
"0.8./ 9.e.8.0.e.9.D 5 u.N.d t r . f @.P & 0 J ! ( / / ! / 0.9./ ",
"0.9.9.9.q.9.0.w.q.F I `.V.5 D U 2 L.!.| > 8.e.e.0.! ! ! ! 0.0.0.",
"0.0.9.e.9.0.9.0./ A V 6.N B q R 1 3.B X.1 ~ ! / ! ! 8./ ! / ! ^ ",
"0.9.9.9.9.0.q.e.e.U 3 1 < 3 H ! 0 3 3 9 A ! ! ! 0.0.8.! ! ( ( 9.",
"/ 9.9.9.9.8.9.9.0.( / Q ! 8.9./ ! / / 0.9.9.0.9./ ! ^ ! ! 8.0.e."
};
