/* XPM */
static char *_d8f97eb6b784247c3a3fcfc423c9546gmNVeHjMnxzFVOvt[] = {
/* columns rows colors chars-per-pixel */
"32 32 59 1 ",
"  c #584C3D",
". c #5F5241",
"X c #625544",
"o c #665846",
"O c #6A5A47",
"+ c #675948",
"@ c #6C5D49",
"# c #6F604E",
"$ c #72634E",
"% c #6E6151",
"& c #756552",
"* c #786752",
"= c #776853",
"- c #7B6A55",
"; c #7D6E59",
": c #826F57",
"> c #806F59",
", c #84735C",
"< c #89765E",
"1 c #8D795E",
"2 c #867660",
"3 c #897760",
"4 c #8D7B63",
"5 c #8F7E68",
"6 c #917D64",
"7 c #917F69",
"8 c #958166",
"9 c #988367",
"0 c #95826A",
"q c #99856C",
"w c #98856D",
"e c #99866E",
"r c #9B876E",
"t c #9A886F",
"y c #9E886D",
"u c #9A8770",
"i c #9B8972",
"p c #9D8A72",
"a c #9E8C73",
"s c #9E8B74",
"d c #9E8C75",
"f c #A08A6F",
"g c #A18C72",
"h c #A18D73",
"j c #A28E74",
"k c #A48F74",
"l c #A49076",
"z c #A59177",
"x c #A29078",
"c c #A79278",
"v c #A7947B",
"b c #A89378",
"n c #A9947A",
"m c #AA967C",
"M c #AC977E",
"N c #AD997F",
"B c #AD9980",
"V c #B39F86",
"C c #B4A087",
/* pixels */
"=4;4444444444444444444444-344-<;",
"<w<jbbbbbnccnbzznnmmmnnnchkzk497",
"*,0jznMmmmjpmmmmmNBBMnmmnnzwcw0<",
",jp,%wxjjjpidddssippsdddspw,-jzw",
"<n0. &-- X&;;;;%+==;,;;-&;&X=izu",
"<ca-@:66,+;0w0p<&9ijc4w04h4$9nzu",
"<cn<$46w92%0sjz7<hnBV5jt9mw&9mzw",
"<vm<$6<6yw,&7pzw0jcmVwcw0mw&9Bbi",
"<zm<X*,&6yw,#4jp9jccVpmi0mw&9Bbi",
"<zm<XO:,&8yw,&ww9jcBVpmp9mw&9Bcp",
"<nN<o*o-<,8y9,-46hcBVcvw0mw&9Nnp",
"<nN<O,&$&69wyw3=,pcBCcvw9mw&9njp",
"<bN4O,#3X-69wyw4-9jBCcvpwmw&9cws",
"<bN4O<4t-*-689yw4=9cVvmawmw&9zws",
"<bm4O4wa,6-*689yw,X9Bcmp9mw&wj9d",
"<bm6O4yp,p6-,686yw-Xpzmw6mw&wd3d",
"<nc,@4yt;pp9-,689yw,&wc94mw&wvwp",
"<mc-@4yw;jjz6&<68wy96=ww6mw&wNci",
"<mm1@6yi;jcvp4,<68wfw0;46mw&wMci",
"<mN4@4yp,jcmhww*-19wyw,X,cw&wmzw",
"<mB4@4yh<hcmjyc4O,69wyw-#ww&wnzw",
"3mB4@4yj<pcmjpc9>$,896yw4-2$9nkw",
"3mN4@4yj<wpmjhb946$<864yw4&+wnkw",
"<mN4@6hh,00nhhbw4p0*<89yy,,X9nkw",
"3mB6@8hp>00njpbt4pp9;<6yh9,-wnkw",
"3mB6@6hw-wwcjpbw4pp7w&>6ww6-wnkw",
"<mB6O<94&69pw9p4,ww4p<@-11<$wnkw",
"<mj-X#-&O*-;---&@---,*@ &-*#4wzw",
"<mp$;90999999999099999009w9;;9zw",
"-w06wfffhhffhhhhhhf939jjkkkywwp4",
"&&9hhhkkzczzcccbnbbj0pcbccbbcw42",
"o,<64444466666446689099999999,>-"
};
